<?xml version='1.0' encoding='utf-8'?>
<svg xmlns="http://www.w3.org/2000/svg" enable-background="new 0 0 3399.687 5000" version="1.1" viewBox="0 0 3399.7 5e3"> <path fill="#fff" d="m1761.2 4999.8c3.272-13.729-8.034-22.911 0.091-33.285 25.172-32.139-16.676-134.69 13.943-175.75 32.77-43.946-0.191-32.961-9.074-35.767-25.588-8.083-44.861-22.457-44.047-27.333 0.616-3.689 38.038-10.364 47.464-14.762 8.248-3.848 12.751-4.449 76.205-4.348 52.321 0.083 42.695 24.996 107.17 49.514 52.393 19.924 53.972 8.425 56.374 18.519 2.871 12.061-28.061 25.209-40.389 26.38-222.78 21.175-102.76 65.532-190.69 178.71-16.934 21.801-2.502 18.122-17.052 18.122z"/> <path fill="#fff" d="m1650 0c5.695 14.603 26.742 2.415 57.109 14.067 19.025 7.3 34.509-3.976 60.73-1.133 40.771 4.42 31.34 64.846 12.204 96.518-33.485 55.422-30.63 38.738-49.338 102.01-11.883 40.197-41.198 37.879-36.427 10.403 12.846-73.987-61.774-157.62-62.388-190.31-0.476-25.408 13.089-19.912 14.273-31.557h3.837z"/> <path fill="#fff" d="m0 683.01c59.873-9.451 19.683-113.1 110.46-123.57 85.908-9.902 81.994 35.174 67.163 48.255-5.146 4.539-17.782 1.141-33.929 2.612-22.699 2.068-31.642 32.157-9.852 43.205 13.532 6.86 24.634 18.105 40.142 21.622 16.034 3.637-9.246 51.973-68.212 56.045-104.41 7.211-87.689-46.402-105.77-44.336v-3.837z"/> <path fill="#fff" d="m3399.7 406.74c-0.049 0.101-50.647 103.63-55.907 111.98-30.58 48.541-137 31.537-140.55 7.33-10.322-70.413-26.288-96.005 114.26-94.141 17.376 0.23 5.937-0.431 61.84-30.808 4.84-2.63 20.356-0.894 20.356 5.636z"/> <path fill="#fff" d="m1214.9 3683.5c52.953 2.428 78.749 13.554 108.68-3.181 27.114-15.159 76.969 6.275 95.642 18.737 44.573 29.749 88.655-13.986 125.72 48.975 18.736 31.825 88.895 19.181 25.815 83.55-20.918 21.342-176.8-68.5-185.14-45.803-4.756 12.937 138.63 64.859 161.95 72.05 54.824 16.908-97.517 65.091-139.22 48.266-167.63-67.624-39.976 0.434-186.99-126.67-20.528-17.747-41.859-17.203-51.607-52.93-1.403-5.142-15.396-36.399 3.261-37.498 15.859-0.934 31.022-8.229 41.892-5.493z"/> <path fill="#fff" d="m477.61 2883.6c-3.478-24.206 13.082-59.571 12.816-68.527-0.727-24.521 14.905-159.35 39.167-141.4 24.053 17.795 24.247-1.461 45.042 34.863 67.351 117.65 70.277 24.582 134.14 166.03 13.177 29.187-36.397 158.99-44.88 152.73-35.792-26.405-43.406-84.994-55.458-80.787-6.442 2.249 0.672 37.604 3.413 43.905 3.688 8.477-4.091 15.636 0.432 21.803 4.078 5.56 13.506 1.542 18.644 7.196 19.46 21.411 12.743 33.083 27.988 44.633 3.389 2.567 6.753 11.258 1.718 15.061-4.681 3.536-35.357-12.213-42.793-32.977-18.349-51.23-152.73-39.753-140.22-162.53z"/> <path fill="#fff" d="m753.28 3444.1c-0.046-3.827 22.144-78.574-4.637-112.78-43.668-55.773 4.441-154.53 64.163-60.177 46.201 72.991 116.1 51.925 129.21 77.518 8.692 16.973 28.898 30.951 29.675 68.684 2.689 130.48 77.782 152.19-68.082 46.069-2.638-1.919-5.665-3.993-8.549-1.556-12.354 10.439 116.53 131.64 82.648 126.45-18.942-2.904-26.017-14.249-87.426-16.759-47.009-1.923-38.605-19.774-63.476-26.382-22.376-5.944-40.595-15.189-49.56-36.324-19.025-44.849-23.324-48.339-23.965-64.745z"/> <path fill="#fff" d="m557.42 1047.6c16.855-54.145 64.333-129.82 66.857-129.62 3.166 0.247 20.063 36.948 20.272 37.662 19.657 67.217-12.76 92.907-7.679 133.53 3.174 25.376 10.104 30.008 1.759 52.279-2.632 7.024-4.041 32.534 2.047 32.619 30.002 0.421-4.358-62.534 78.562-117.55 52.178-34.62 42.902-41.769 55.318-51.331 8.365-6.443 18.804 19.187 19.066 26.029 3.785 98.801-75.449 151.46-111.18 282.24-14.979 54.815-17.442 34.439-21.651-20.364-2.031-26.444-32.018-70.942-39.399-83.631-7.991-13.737-15.023-22.593-48.843-3.64-56.015 31.39-50.579 63.161-82.008 110.86-1.804 2.738-19.949 13.614-20.951-3.507-4.873-83.319 20.746-50.069 87.833-265.58z"/> <path fill="#fff" d="m1983.9 3833.8c13.824-12.604 9.466-31.396 2.403-26.905-5.275 3.354-12.752 11.786-15.061 11.31-22.877-4.722-53.963 20.734-101.66 18.592-44.473-1.996-36.11-43.448-47.901-68.002-7.544-15.709 45.982-27.317 59.315-26.528 55.033 3.255 149.67-76.142 175.41-33.104 23.877 39.932 150.19-9.165 134.68 25.257-18.605 41.302-57.278 74.469-83.953 82.665-19.898 6.115-12.928 21.474-15.838 52.336-5.476 58.077-76.169 21.343-117.15 55.672-22.402 18.767-40.255 0.505-84.377-3.666-21.139-1.999-52.742-34.951-34.993-44.873 137.78-77.014 102.73-18.699 129.12-42.754z"/> <path fill="#fff" d="m1730.2 4233.4c0 93.243-16.701 178.74 145.33 258.66 51.208 25.242-130.68 87.237-188.55-17.078-22.126-39.884-28.388-8.259-48.179-76.64-46.984-162.34 1.29-67.297 41.246-400.85 1.825-15.235 15.307-12.704 20.218-6.909 27.391 32.314 29.834 242.82 29.934 242.82z"/> <path fill="#fff" d="m2689.3 3292.8c5.92 55.832-44.709 32.989-38.381 135.08 2.06 33.229-64.909 128.23-112.98 124.15-56.284-4.775-62.052 31.681-119.36 26.946-30.875-2.545 77.644-53.858 110.34-128.05 11.822-26.834-48.709 35.572-83.114 62.82-72.688 57.567-38.645 34.761-19.159-33.701 15.487-54.414-25.192-78.582 56.465-143.07 12.844-10.144 17.546-10.338 85.13-24.632 23.289-4.926 112.58-101.34 115.37-64.16 1.147 15.26 8.478 29.67 5.687 44.61z"/> <path fill="#fff" d="m2743.2 2900.5c-20.834-44.092-30.004-86.652 18.603-105.46 97.25-37.62 28.721-23.252 91.565-118.11 18.168-27.424 53.949 7.7 51.247 40.764-7.646 93.528 77.442 104.22 24.324 235.37-8.736 21.569-18.249 7.432-47.056 33.272-24.327 21.822-91.308 90.094-82.992 58.368 0.026-0.1 57.651-112.27 36.723-123.81-12.364-6.824-8.807 54.108-61.455 121.33-46.518 59.402-5.55-87.952-30.959-141.73z"/> <path fill="#fff" d="m2096.7 441.14c28.898-5.183 90.141-20.98 136.11 12.371 139.49 101.21 111.14 42.206 153.15 96.598 1.315 1.703 23.315 11.667-6.179 13.064-98.21 4.651-65.999 15.617-143.78-23.84-9.81-4.976-18.854 1.858-10.906 12.739 19.302 26.423 3.36-5.152 33.793 42.879 16.297 25.721-3.616 36.973-6.369 63.544-0.894 8.624-5.884 12.544-13.365 3.337-3.823-4.705-3.658-22.908-42.546-41.082-83.955-39.234-109.22-29.736-127-48.21-46.79-48.634-13.549-54.024-59.574-82.27-33.528-20.577-25.578-62.746-9.696-63.153 71.867-1.838 72.064 18.382 96.367 14.023z"/> <path fill="#fff" d="m641.1 1447.2c13.766 44.608-24.004 37.577-70.955 71.007-22.797 16.231-32.353 46.449-37.724 43.689-10.836-5.569 37.975-75.293 12.467-138.94-1.862-4.647-6.899-3.328-7.626 1.223-14.97 93.615-38.641 165.54-39.752 139.23-0.414-9.83-16.243-61.393-48.487-88.789-37.879-32.182-7.411-116.95 39.37-133.96 25.266-9.187 33.53-38.775 49.523-74.096 10.981-24.254 55.833-64.073 70.123-41.454 48.353 76.535-7.75 89.854 33.061 222.1z"/> <path fill="#fff" d="m349.67 2008.2c-0.698-28.489 4.748-97.061 47.86-111.25 49.35-16.244 19.995-43.69 60.993-87.971 21.645-23.378 52.064 22.634 57.762 51.932 10.641 54.716-13.782 45.892 6.605 64.964 34.421 32.2 48.233 75.671 58.514 121.72 4.637 20.768-10.452 31.822-18.925 59.04-11.848 38.06-69.73 3.176-92.179-54.551-26.569-68.323-20.356 8.967-69.768 8.33-53.959-0.695-47.572 5.151-50.862-52.206z"/> <path fill="#fff" d="m2774.7 1448.6c0-75.306 38.073-89.8 30.512-115.2-4.25-14.278-8.713-75.345 1.175-86.267 14.55-16.072 13.176-21.86 20.561-21.403 39.659 2.456 60.047 80.884 77.92 99.869 47.288 50.226 54.983 52.287 53.701 67.257-2.227 26.007 25.992 33.093 6.3 78.913-8.387 19.516-23.469 2.32-38.057 47.438-12.278 37.977-11.275 33.876-11.912 33.671-16.511-5.312-41.793-185.86-42.485-90.801-0.278 38.319-10.915 72.291 3.51 105.53 2.704 6.23-2.029 10.968-2.974 16.457-5.527 32.107-17.946-29.062-79.755-66.714-27.724-16.889-15.216-68.759-18.496-68.75z"/> <path fill="#fff" d="m1707.1 4783.2c-44.602 1.057-44.581-27.192-78.04-26.353-41.673 1.045-43.04-2.323-58.444 5.624-8.748 4.514-5.987 13.225 2.5 14.193 36.061 4.115 54.332 17.515 67.83 36.616 27.079 38.32 86.526 97.003 65.793 122.47-43.137-15.902-38.334-81.699-144.98-97.868-45.756-6.937-63.435-27.621-96.043-30.543-38.347-3.437-45.768-24.054-70.923-35.127-19.692-8.669-30.99-56.09-36.269-76.702-12.063-47.093-33.849-52.774-15.272-85.813 32.754-58.244 24.405 62.431 76.113 81.07 61.873 22.306 44.777 22.725 64.494 21.517 68.946-4.217 98.169-36.453 157.74-2.058 19.027 10.984 16.011 30.275 69.785 54.785 22.071 10.061 27.612 18.189-4.284 18.189z"/> <path fill="#fff" d="m2850 4207.2c-40.367-0.48-59.617-13.783-64.808-14.445-4.038-0.515-8.253 4.065-4.214 7.053 61.43 45.454 105.94 15.122 100.9 36.92-9.067 39.187-55.224 57.948-85.198 61.512-58.358 6.939-65.24-14.659-89.155-35.391-94.029-81.513 31.612-259.53 120.17-201.78 62.562 40.799 79.119 29.957 89.436 77.343 4.578 21.023-18.926-22.192-84.93-2.415-181.21 54.305-71.941 166.68-80.248 123.51-4.268-22.187-16.22-53.032 24.388-78.188 120.02-74.343 205.64 18.449 73.657 25.882z"/> <path fill="#fff" d="m1129.1 541.52c25.365-75.786 17.88-64.711 70.556-89.503 57.289-26.963 55.776 32.218 122.21 4.094 20.715-8.77 47.589-6.149 69.626-2.008 47.628 8.95 15.361 78.12-44.932 101.76-28.289 11.094 8.437 37.113-39.868 67.058-71.817 44.521-76.428 65.301-83.317 28.818-5.8-30.71-32.34-33.931-38.685-37.393-37.899-20.675 69.886-55.463 67.239-72.691-3.758-24.482-125.51 61.979-122.83-0.14z"/> <path fill="#fff" d="m728.97 3213.5c1.157 20.459-11.318 24.285-16.363 56.345-11.03 70.103 51.043 63.003 24.394 142.7-7.406 22.149-256.5-373.68-201.96-399.37 18.219-8.582 65.058 38.93 71.253 47.7 25.663 36.33 115.5 56.933 122.68 152.62z"/> <path fill="#fff" d="m3009.9 2075c-17.151 4.2-24.111 12.871-35.75-6.035-65.951-107.12-23.522-9.538-75.35 13.388-17.557 7.766-12.471 15.007-28.177 18.935-44.646 11.164-36.988-117.8 6.561-169.27 10.561-12.483-2.336-21.768 11.027-74.937 10.342-41.145 54.869-39.878 71.781-10.548 22.929 39.764 12.761 55.984 35.656 69.991 36.932 22.596 58.809 147.57 14.252 158.48z"/> <path fill="#fff" d="m2415.2 3432.3c-9.453 20.1-4.785 45.033-17.138 67.75-44.478 81.796-43.234 146.26-127.08 192.43-33.784 18.6-19.456 40.923-51.698 61.789-11.26 7.286-14.841 0.177-13.908-3.384 15.378-58.656-0.786-46.455-109.37-51.615-9.356-0.444-24.002-0.778-27.427-15.561-1.347-5.815 44.31-21.329 49.937-23.302 61.157-21.451 253.9-188.98 273.87-236.06 3.795-8.946 19.328-18.039 22.814 7.951z"/> <path fill="#fff" d="m496.08 1681.5c5.1 129-73.354 81.416-89.575 186.73-2.124 13.791-16.342 6.954-34.831 19.989-41.011 28.914 16.063-230.3 24.759-296.69 25.566-195.16 88.564-79.329 99.647 89.966z"/> <path fill="#fff" d="m1680.6 3758.1c-0.737-38.456 1.368-51.884 13.963-53.352 55.418-6.465 8.074 13.952 79.069 42.326 47.232 18.876 36.945 127.78 67.787 163.22 16.939 19.465 6.485 59.067-14.093 56.941-65.775-6.792-32.882-216.19-65.333-201.3-7.888 3.62 0.358-5.748 2.159 128.08 1.839 136.82-42.682 63.874-80.998 60.935-64.879-4.979-1.306-131.74-2.554-196.85z"/> <path fill="#fff" d="m392.26 2419.3c27.972 5.19 30.161 8.042 70.563 76.582 23.18 39.323 9.058 95.95 35.465 143.11 9.798 17.501 2.223 19.424-20.314 84.587-5.679 16.422-3.981 154.71-39.667 89.123-45.753-84.082-60.618-281.08-61.948-377.56-0.183-13.312 1.902-15.786 15.901-15.848z"/> <path fill="#fff" d="m2015.8 4746.5c-18.215 0.964-83.46-13.67-60.21-26.364 103.03-56.258 39.345-213.12-53.749-182-38.433 12.843 54.484-88.196 104.57-49.866 33.563 25.686 58.272-0.597 95.561 56.128 64.434 98.017-38.283 206.14-86.172 202.1z"/> <path fill="#fff" d="m1242.1 3859.2c-86.252-12.743-57.688-24.67-167.39-91.979-227.27-139.44-232.4-210.11-142.92-168.26 27.772 12.985 109.71 30.77 137.84 42.979 15.582 6.761 5.914 13.074 31.064 26.806 63.597 34.723 41.322 80.836 80.86 110.13 38.856 28.792 71.512 62.67 76.154 69.659 7.561 11.386-4.824 10.666-15.613 10.666z"/> <path fill="#fff" d="m2725.6 1003.4c1.584-63.159 27.1-115.78 57.323-61.446 38.052 68.411 26.477 30.038 38.744 60.547 21.737 54.068 33.516 48.708 34.4 58.801 1.026 11.715 22.463 65.439 32.885 78.684 28.654 36.418 37.183 96.718 52.122 125.79 33.929 66.035-11.658 69.671-32.415 18.939-39.123-95.624-87.128-43.781-128-169.83-8.788-27.111-56.145-55.832-55.062-111.49z"/> <path fill="#fff" d="m2121.3 3838.2c43.903-44.564 121.14-59.804 127.91-78.485 22.177-61.13 65.14-58.103 89.042-92.656 80.539-116.43 45.379-26.864 141.92-84.941 21.288-12.807 69.277-21.407 62.143-2.582-11.878 31.34-216.48 201.98-216.58 202.06-35.89 25.491-59.417 8.682-87.069 35.678-69.799 68.146-142.24 46.183-117.36 20.929z"/> <path fill="#fff" d="m3200.3 3544.1c4e-3 0.1-34.696 233.14-75.63 101.18-10.936-35.256-31.911-42.508-79.647-79.288-50.866-39.19-35.623-148.3 18.632-120.29 41.745 21.553 4.75-25.008 52.461-25.596 30.56-0.377 84.184 45.76 84.184 124z"/> <path fill="#fff" d="m2613.4 3141c66.256-93.605 68.971-206.82 96.13-209.32 49.538-4.539 48.996 251.88-32.39 283.74-6.049 2.368-40.464 7.607-80.025 48.522-32.148 33.25-130.19 83.997 16.285-122.95z"/> <path fill="#fff" d="m2665.1 496.14c-26.947 9.663-32.883 11.924-25.894 27.693 25.168 56.786-86.341 120.64-115.84-32.272-1.804-9.351-13.78-16.324-17.565-25.81-5.728-14.355-24.527-30.032-65.899-11.118-11.144 5.095-16.91-19.182-7.246-27.718 155.71-137.53 306.52 42.66 232.44 69.225z"/> <path fill="#fff" d="m2935.3 1007.3c-36.68-15.208-17.54-48.929-1.109-93.261 7.844-21.162 35.354-23.22 53.851-56.359 31.666-56.732 150.84-86.118 183.9-37.605 11.173 16.396-25.656 13.136-42.988 32.607-74.444 83.626-97.193 194.61-193.66 154.62z"/> <path fill="#fff" d="m810.22 611.21c-12.89 1.854-51.513-5.857-56.533-32.832-6.071-32.616 30.049-12.29 47.29-45.155 11.857-22.604 0.101-27.946-17.231-18.282-28.803 16.06-25.389 16.081-55.415 7.737-40.989-11.391 26.729-90.917 80.636-80.876 115.11 21.442 191.44-44.533 164.7 23.32-9.028 22.912-40.524 68.723-46.876 68.504-23.705-0.815-45.012 80.437-116.57 77.584z"/> <path fill="#fff" d="m2344.1 901.63c1.253-82.605 70.454 37.008 188.25-37.9 25.78-16.394 41.04 5.229 33.775 26.753-22.871 67.757 2.786 15.698 58.399 38.007 37.005 14.844 81.665 92.354 74.704 101.38-2.693 3.491-50.355-10.264-54.759-10.809-43.357-5.361-1.724 3.83-40.39-3.666-77.26-14.977-59.384-76.024-96.079-58.108-26.025 12.707-149.36 31.042-163.9-55.655z"/> <path fill="#fff" d="m1609 337.36c-3.296-49.393 79.065-125.98 86.088 19.806 0.452 9.378 1.86 25.91 11.3 25.662 27.813-0.733 2.834-93.811-5.234-102.21-20.348-21.177 50.063-29.019 62.417 58.275 5.164 36.484 7.081 33.86 3.93 41.379-9.827 23.452 4.848 43.116-12.719 70.785-71.388 112.44-94.603 134.15-101.28 2.161-1.931-38.142-42.669-26.92-44.497-115.86z"/> <path fill="#fff" d="m2743.8 1133.1c12.336 14.649 21.762 4.704 35.489 32.903 11.756 24.153 20.868 16.904 15.971 27.718-6.679 14.749 1.025 35.088-11.219 49.574-9.483 11.218-6.431 19.732-5.192 84.619 0.882 46.187-21.833 77.05-30.872 21.142-4.464-27.604-9.789-36.23-57.688-111.45-39.622-62.22-79.375-155.32-93.29-160.86-0.737-0.293-14.408-34.381 2.729-35.291 80.585-4.276 113.85 55.754 144.07 91.642z"/> <path fill="#fff" d="m2843.9 3562.8c-18.206-5.592-60.814 31.829-101.6-46.349-3.18-6.096 1.122-12.73 7.491-11.353 54.038 11.682 57.751-93.418 81.915-111.18 29.413-21.615 38.276-59.59 47.596 23.779 0.778 6.971 8.542 4.203 9.553 1.408 24.049-66.459 31.475-162.97 51.321-155.1 2.774 1.101-12.962 176.44-55.529 200.47-14.469 8.164-2.076 22.889 9.728 9.862 31.219-34.458 27.841-69.684 61.781-58.498 41.586 13.706-18.869 156.54-112.26 146.96z"/> <path fill="#fff" d="m2926.9 2563.7c1.523 23.042-19.004 46.289-23.724 72.365-5.046 27.876-19.051 6.059-37.651 14.249-59.301 26.113-55.245 104.99-69.677 109.02-43.384 12.099-11.374-45.986 0.807-83.932 15.845-49.359 41.951-345.18 62.536-318.75 12.462 16 29.177 14.128 32.159 25.402 12.068 45.628 14.412 108.86 13.642 120.9-0.977 15.285 21.618 18.387 21.908 60.748z"/> <path fill="#fff" d="m543.23 1880.6c-1.804-11.052-7.472-60.285-32.202-76.423-44.982-29.356 29.668-133.94 35.151-198.64 4.561-53.82 32.867-77.121 82.638-96.216 28.351-10.877-9.654 101.14-38.168 223.97-5.222 22.501-13.902 203.07-16.653 211.58-4.096 12.678-35.122-29.309-30.766-64.269z"/> <path fill="#fff" d="m2555 768.69c22.602 111.53-151.23 114.16-163.2 79.424-4.29-12.447-15-12.302-8.35-18.614 5.829-5.532 40.288 32.486 80.574-1.096 17.837-14.868 15.947-53.991 20.708 16.084 1.598 23.494 32.729 28.872 17.677-45.038-10.986-53.953-145.79-116.17-177-65.426-10.771 17.514-22.791 62.544-22.535 42.699 1.828-141.91 63.698-124.43 95.906-138.67 23.876-10.553 51.595-2.695 73.187 2.171 41.478 9.349 26.892 40.691 52.684 55.799 34.14 20 30.346 52.507 30.346 72.663z"/> <path fill="#fff" d="m553.56 3586.7c-110.52 1.737-169.83-111.98-52.424-113.43 12.837-0.159 3.173-22.742-3.044-33.926-25.184-45.307 57.513-60.097 88.182-5.299 22.778 40.7 18.835 105.67 97.359 103.32 60.09-1.793-42.198 50.784-130.07 49.33z"/> <path fill="#fff" d="m1762 4024.5c-9.513-34.791 22.428-47.926 31.201-44.52 13.295 5.162 13.806 15.513 16.593 55.721 5.648 81.512 71.699 317.82 17.077 390.6-12.96 17.272-44.097-21.521-50.689-36.001-32.168-70.664 26.69-216.32-14.182-365.8z"/> <path fill="#fff" d="m611.54 848.67c4.904-53.921-88.591-54.265-62.955-200.64 1.427-8.148 19.108-30.199 28.797-23.729 16.397 10.95 15.48 16.15 44.873 80.751 25.02 54.991 22.108-54.18 30.084-74.194 9.419-23.636 92.34 4.198 50.545 138.88-10.091 32.519-94.407 134.68-91.344 78.93z"/> <path fill="#fff" d="m3062.6 3263.6c7.203 28.203 68.387 69.463 60.494 34.39-7.743-34.406-25.32-37.777-9.192-84.267 6.322-18.224 41.384-20.732 63.475 24.887 67.675 139.76-18.396 14.64 72.322 151.26 6.887 10.373 5.115 22.8-6.554 19.785-62.958-16.262-89.441 26.325-161.86-23.918-101.73-70.588-28.347-159.98-18.687-122.14z"/> <path fill="#fff" d="m499.2 2553.7c1.399-24.741 18.065-20.009 25.77-39.458 14.816-37.399 2.14-57.176 8.1-112.06 2.226-20.503 4.167-6.85 31.116-46.288 7.84-11.474 13.385 7.382 13.543 16.823 0.372 22.272 38.39 212.28 38.406 223.94 0.078 58.533 39.775 154.14 38.696 156.25-2.814 5.507-17.885-0.33-25.927-13.347-70.71-114.45-116.18-54.524-129.7-185.87z"/> <path fill="#fff" d="m3030.2 1731.2c6.624 130.63-30.154 150.82-34.422 130.59-15.243-72.289-51.915-34.858-55.358-256.9-5e-3 -0.342-23.782-82.175 38.837-118.2 37.163-21.38 49.187 201.19 50.943 244.51z"/> <path fill="#fff" d="m1176.6 3668.2c-16.641 17.542-63.084-5.022-79.563-23.217-113.44-125.24-67.612-100.6-91.191-155.03-45.919-105.99 29.77-49.797 58.818-11.327 56.396 74.689 75.37 91.434 116.37 106.71 34.132 12.72 54.93 33.733 109.43 61.496 52.087 26.539-94.966 1.451-113.86 21.366z"/> <path fill="#fff" d="m2877 3064.2c11.49 78.012-57.345 149.71-63.297 153.07-44.093 24.945-95.521 162.86-130.88 176.46-13.452 5.175-15.344-14.272 1.261-31.792 33.496-35.341 32.25-67.999 23.364-109.04-8.994-41.555 20.238-45.276 41.836-107.17 3.776-10.82 0.652-51.155 47.964-66.748 68.015-22.418 79.748-97.423 79.748-14.784z"/> <path fill="#fff" d="m1452.5 839.44c-44.566 1.753-49.107-35.016-29.186-46.798 33.407-19.758 49.703-19.359 69.46-45.431 12.19-16.086-4.087-36.526-21.764-28.19-14.619 6.893-83.327 17.587-80.845-15.682 5.607-75.147 159.86-74.496 181.33-117.3 43.598-86.933 4.186 235.15-118.99 253.41z"/> <path fill="#fff" d="m2806.4 636.43c-5.454-28.003 29.702-63.154 22.584-70.506-7.646-7.898-25.509 6.272-32.579 13.767-35.461 37.596-64.753 48.164-65.635 76.67-0.777 24.917-60.584 96.835-69.636 90.083-4.847-3.616 0.616-24.725 13.196-33.186 10.263-6.903 62.863-82.48 33.05-67.602-63.452 31.669-91.14 5.821-75.143 2.987 85.935-15.227 159.14-79.717 129.72-84.601-19.318-3.207-8.407 8.009-68.88-12.357-19.982-6.729-26.203-19.883-23.384-23.56 11.85-15.452 50.932 43.12 168.82-0.161 33.48-12.292-48.088-7.609-36.717-51.508 2.284-8.817 9.468 2.725 15.023 10.197 29.813 40.094 93.982-2.91 128.38-81.291 12.113-27.603 37.356-176.04 63.569-160.92 16.606 9.581 5.939 27.132-5.304 48.65-38.942 74.538 22.308 74.444-87.206 214.76-8.025 10.282-102.51 96.87-87.141 154.23 4.952 18.476-24.962 32.328-22.715-25.649z"/> <path fill="#fff" d="m799.61 4302.6c-6.264-70.471 54.509-130.78 58.287-108.32 0.928 5.516-18.825 44.717 14.492 86.468 23.881 29.931 10.634 33.612 74.027 48.241 57.275 13.213 83.165-29.245 84.708-4.576 6.325 101.14-213.97 175.61-231.51-21.814z"/> <path fill="#fff" d="m3094.5 2176.8c40.251 14.491 3.999 44.779 4.945 73.576 2.339 71.192-42.668 58.334-109.24 32.138-12.8-5.037-57.888-73.303-119.82-48.34-15.973 6.438-34.448-5.875-29.364-30.88 3.719-18.292 5.881 3.125 98.902-38.266 61.532-27.381 117.77-1.485 154.59 11.772z"/> <path fill="#fff" d="m200.48 2891.8c-26.538 10.027-77.077 18.028-76.832-10.747 0.223-26.166 19.344 4.956 52.635-43.378 40.079-58.191-32.847-152.15-17.187-174.83 31.109-45.052 30.644-68.678 63.821-53.249 27.041 12.577-5.265 22.686-0.851 49.002 3.468 20.67 19.258 45.246 41.014 43.317 38.66-3.428 15.678 160.3-62.6 189.88z"/> <path fill="#fff" d="m775.86 3899.4c149.12 4.489 164.69 194.61 123.42 155.42-6.436-6.114 0.406-22.692-39.595-25.928-65.179-5.273-63.684 25.708-116.76 22.244-35.741-2.332-78.975-45.784-5.637-67.166 25.557-7.452 35.118-27.806-16.647-28.696-18.5-0.317-19.693-1.979-13.753-19.936 9.634-29.123 38.298-35.939 68.975-35.939z"/> <path fill="#fff" d="m372.04 2184.8c69.684-8.514 66.767 36.746 135.28 17.434 0.101-0.029 50.086-10.992 59.949-9.813 18.46 2.207 15.223 18.804 14.899 33.592-0.717 32.722-283.95 98.562-311.97 41.619-10.073-20.47 11.423-19.926 41.954-68.497 11.078-17.625 27.274-14.335 59.89-14.335z"/> <path fill="#fff" d="m1282.3 809.56c32.987-2.039 58.652 7.136 132.13 65.117 17.961 14.173 45.524 106.1 18.641 91.206-53.469-29.622-93.669-5.532-149.07 0.209-38.21 3.959-108.58-22.434-83.232-62.678 12.961-20.58 137.6 5.683 119.93-23.241-23.27-38.09-59.845-36.989-81.625-48.227-13.026-6.72-9.044-22.386 43.231-22.386z"/> <path fill="#fff" d="m3106.1 1417.3c38.204-0.055 20.127 53.683 16.651 59.185-5.454 8.63 17.964 31.071 34.161 11.098 10.724-13.223 26.382-53.435 44.042-27.089 3.942 5.88 14.244 28.645 5.975 68.097-7.261 34.647-20.61 35.325-94.791 74.106-28.756 15.033-38.729 49.721-45.399 49.808-0.101 1e-3 -72.119-223.17 39.361-235.2z"/> <path fill="#fff" d="m3005.5 1335.5c-12.443-91.348-2.638-121.68 25.575-138.68 30.376-18.301 69.418-3.968 45.694 18.962-20.144 19.469-23.767 58.844 0.712 66.316 44.01 13.435 48.728-74.082 68.254-44.008 28.775 44.325 2.883 71.208 0.645 88.665-2.166 16.887-18.196 29.198-21.551 35.453-17.747 33.088-56.972 13.2-82.019 37.928-5.859 5.785-19.011 1.544-33.498 5.409-39.177 10.454-2.465-50.344-3.812-70.047z"/> <path fill="#fff" d="m3101.4 3713.3c28.123 15.017 52.631 82.566 34.667 103.14-10.333 11.837-10.104 28.412-17.097 41.967-7.702 14.928-27.06 38.307-30.734 20.695-5.881-28.192 4.603-18.682-15.907-68.264-13.344-32.26-111.22-105.8-178.25-90.239-28.288 6.563 13.469-46.201 32.329-51.581 103.53-29.532 111.75 10.508 174.99 44.277z"/> <path fill="#fff" d="m2180.2 704.69c-64.006-0.863 26.075 77.346 16.213 90.723-13.522 18.342-50.889-3.32-62.538-13.184-16.051-13.591-28.396 24.485-65.46 6.74-14.828-7.099-37.394-7.717-49.211-28.391-4.648-8.132-17.951-11.797-14.424-18.25 0.055-0.1 135.99 58.417 107.94 19.526-27.828-38.58-32.901-83.444-62.569-98.014-39.629-19.461-5.108-63.403 96.955-38.899 114.41 27.467 101.34 112.36 81.995 102.39-27.294-14.058-35.553-24.953-48.898-22.645z"/> <path fill="#fff" d="m228 1298.4c-10.854 148.36-202.08 160.6-162.77 101.08 3.894-5.895 24.333-15.532 12.58-59.474-34.485-128.94 50.741-149.37 53.744-132.55 2.201 12.324-22.68 43.785-5.705 87.314 8.413 21.575 36.981 8.979 47.433-9.614 7.343-13.063 13.775-41.793 38.612-20.347 12.816 11.067 17.322 24.392 16.106 33.593z"/> <path fill="#fff" d="m726.85 4303.4c-13.184-6.003 3.098-17.715-0.672-41.396-7.9-49.632-20.198-58.862-7.787-75.522 2.306-3.096 1.081-10.224-7.882-7.218-22.442 7.526-41.226-63.133-163.77-75.078-22.844-2.226-26.977-2.928-20.581-10.354 12.88-14.96 26.5-54.833 85.107-46.325 131.58 19.104 92.975 151.4 121.11 87.329 39.786-90.616 88.422 211.34-5.52 168.56z"/> <path fill="#fff" d="m3321.2 2883.5c-12.425 34.291-3.336 52.347-10.069 77.377-9.171 34.11-32.646-57.641-58.741-69.989-119.89-56.726-61.058-145.38-5.138-83.545 58.523 64.711 43.203-7.157 31.211-25.137-36.221-54.311-87.159-66.766-3.408-92.94 13.598-4.246 105.84 29.5 46.145 194.23z"/> <path fill="#fff" d="m553.09 4404.4c-42.275 1.486-85.703-48.683-75.102-106.35 6.771-36.832 51.955 87.443 185.22 16.337 21.412-11.424 40.548-30.51 44.986-10.799 5.594 24.847 21.488 12.972 43.4 22.619 20.593 9.065 7.284 22.917 6.714 27.275-5.409 41.371-54.726 33.773-91.816 52.707-29.894 15.26-74.073-3.17-113.4-1.786z"/> <path fill="#fff" d="m2703.3 336.41c27.571-27.329-1.056-18.852 40.446-48.887 15.977-11.563 27.83 4.772 21.555 17.579-11.297 23.059 0.845 58.761 29.676 59.504 115.86 2.988 84.113 122.9 39.072 99.344-21.481-11.233-27.624-37.412-42.567-13.671-14.003 22.246 0.086 53.361-37.969 47.094-41.629-6.856-81.398-130.05-50.213-160.96z"/> <path fill="#fff" d="m2562.1 4153c16.117 31.532 19.747 21.753 34.752 32.933 9.312 6.94-15.79 29.664-40.505 12.286-56.97-40.058-122.78-0.909-113.54 45.976 2.121 10.764 10.811 9.651 13.699 2.707 12.274-29.512 8.578-25.24 19.92-38.783 19.606-23.413 50.405 7.818 43.861 30.624-19.528 68.044 19.205 35.172-25.274 104.19-3.652 5.667-118.4-15.243-87.617-165.97 7.908-38.723 132.66-67.078 154.7-23.959z"/> <path fill="#fff" d="m3012.2 2443.2c-29.121 216.93-3.918 260.39-53.709 358.16-16.326 32.057-33.786-100.2-42.227-116.7-12.46-24.365 53.938-89.853 22.988-168.63-20.322-51.729 72.948-139.5 72.948-72.829z"/> <path fill="#fff" d="m1357.8 216.56c-4.076-44.835 38.45-34.283 73.804-89.814 18.941-29.751 50.197-59.612 82.763-45.704 61.199 26.137 38.95 49.862 90.589 153.44 3.335 6.69 17.406 13.242 11.355 17.47-3.153 2.203-7.872 1.777-10.918-3.5-15.632-27.082-67.93-35.164-73.258-34.747-11.062 0.866-18.855-25.977-105.03-18.235-55.365 4.974-41.271 69.111-50.521 71.052-5.449 1.144-19.616-23.005-18.787-49.966z"/> <path fill="#fff" d="m1974.8 806c-47.165 9.142-68.591-119.58-103.82-141.6-53.602-33.512-49.528-14.229-59.013-22.967-8.786-8.092 35.453-43.433 77.838-33.677 79.946 18.401 165.81 64.329 154.25 116.55-6.521 29.454-45.807-32.505-65.876-3.692-26.139 37.528 78.129 81.376-3.383 85.389z"/> <path fill="#fff" d="m416.57 2405.2c-43.464-0.047-113.1-20.644-96.08-41.969 9.189-11.511 4.44 11.639 97.09 9.452 66.333-1.566 91.925-53.033 49.314-32.54-58.684 28.223-130.07 7.921-154.82 3.06-12.845-2.522-16.727-34.538 9.225-35.808 189.43-9.271 124.42 8.725 227.58-39.551 9.533-4.461 32.408-13.112 38.718-2.182 9.157 15.859-8.396 27.224-23.58 45.633-12.356 14.983-33.771 92.804-147.45 93.905z"/> <path fill="#fff" d="m627.6 365.36c17.747 0.884 108.02 12.246 100.4 28.313-8.044 16.943-13.409-3.615-50.786 94.306-2.831 7.415-1.217 16.912-10.775 21.086-77.514 33.852-61.148 16.138-33.421-32.712 11.597-20.431 6.339-34.322-2.736-29.151-16.132 9.193-48.941 51.983-93.117 35.814-62.233-22.777 3.447-117.66 90.438-117.66z"/> <path fill="#fff" d="m3354 1338.6c-0.08 34.447-14.782 75.153-0.371 119.14 1.975 6.028 10.853 40.963 1.331 43.252-0.1 0.024-90.143-81.225-105.57-101.04-21.46-27.565-32.55-118.93 10.269-81.128 62.105 54.821 2.811-35.93-1.312-62.894-9.165-59.935 111.53 0.51 95.65 82.664z"/> <path fill="#fff" d="m424.47 724.53c-42.297 7.66-108.96-30.313-100.82-92.691 3.371-25.831 50.579 16.916 85.872-2.203 12.628-6.842-3.253-11.656-18.37-33.184-45.425-64.692 56.126-108.82 76.862 21.93 5.446 34.339 32.049 44.451 40.22 49.582 31.13 19.548-41.313 60.228-83.76 56.566z"/> <path fill="#fff" d="m392.62 1374.4c-34.275 17.933-44.386 39.764-63.008 41.543-20.861 1.994-9.362-42.375-5.776-51.266 20.724-51.391-7.915-66.102 1.148-151.34 4.064-38.218 45.636-26.056 54.605 9.904 5.173 20.741 16.778 16.925 23.946 2.243 10.696-21.909 6.002-28.518 24.852-27.625 34.421 1.631 26.513 143.95-35.767 176.54z"/> <path fill="#fff" d="m2904.6 1744.6c1.216 15.088-5.595 58.184-17.548 69.048-14.589 13.26-11.876 18.669-36.615 96.375-16.14 50.702-16.101-161.1-45.561-246.76-13.411-38.995-9.427-131.49 10.854-104.35 67.638 90.508 86.081 130.41 88.87 185.68z"/> <path fill="#fff" d="m312.92 1606.8c0.05 0.1 9.186 28.616-17.04 21.651-33.066-8.782-17.411-9.983-60.383-37.676-72.095-46.462-61.257-143.02-20.314-163.4 25.465-12.678 24.939 10.403 37.018 36.353 9.686 20.81 34.997-48.482 64.859 2.916 39.66 68.26-22.211 103.84-4.14 140.16z"/> <path fill="#fff" d="m2209.1 4466.2c-33.948 5.806-181.16-64.608-126.17-71.848 28.37-3.735 40.576-24.204 72.438-63.338 33.278-40.872 97.024-19.174 73.445 13.35-17.24 23.778-10.452 55.793 26.932 49.956 13.422-2.096 12.001-8.875 20.912-17.873 36.002-36.353 45.941 84.717-67.556 89.753z"/> <path fill="#fff" d="m2322.9 4230.1c-5.769-48.049-54.164-67.393-55.807-40.102-1.774 29.489 1.971 44.55-8.138 46.882-9.119 2.104-32.362-28.607-28.795-76.604 2.234-30.054 17.529-16.521 33.714-58.003 12.674-32.488 91.394-75.386 96.226-55.759 4.278 17.376-6.639 17.768 17.393 93.306 29.474 92.64-49.731 130.77-54.593 90.28z"/> <path fill="#fff" d="m332.87 3468.9c37.766 0.878-13.344 65.922 24.014 57.818 39.634-8.598 30.534-34.383 40.033-29.447 5.606 2.914 14.539 44.705 3.768 67.432-19.321 40.77-22.896 20.125-72.761 65.067-25.001 22.533-83.595 30.968-86.881 29.199-9.287-5-19.455-5.842-29.619-6.876-5.574-0.567-8.612-7.028-1.121-9.786 22.927-8.44 29.82-10.046 32.551-22.585 13.153-60.397 25.518-151.52 90.016-150.82z"/> <path fill="#fff" d="m2850.1 4378.4c-61.824-2.17-68.176-39.395-98.196-40.619-18.693-0.761-37.737-40.138-25.15-30.21 41.206 32.487 152.6-10.344 162.34-38.041 2.318-6.594 46.3-100.45 57.405-86.593 18.674 23.305 16.996 61.774 23.041 69.868 40.001 53.552-56.551 129.5-119.44 125.6z"/> <path fill="#fff" d="m2194 4180c4.121 34.77-27.204 17.541-42.515 60.996-12.308 34.932-45.09 36.881-57.749 22.768-12.912-14.395-16.582-21.238-39.116-84.089-5.041-14.06-15.058-13.831-24.177-23.359-21.724-22.701-49.972-4.238-40.596-27.981 17.893-45.311 125.21-24.313 169.34-1.216 21.184 11.088 32.823 29.101 34.811 52.881z"/> <path fill="#fff" d="m774.03 3875.6c-72.527 22.388-66.337 26.675-75.858 15.006-14.704-18.023-22.977 16.23-43.617 31.252-29.925 21.778-36.82-32.854-35.2-43.552 14.916-98.499 96.559-87.769 113.86-143.9 1.999-6.487 3.66-15.613 11.529-15.599 7.985 0.014 77.137 142.02 29.289 156.79z"/> <path fill="#fff" d="m3272.2 943.95c-1.131 29.685-10.16 67.136-39.21 74.206-35.745 8.699-51.46 31.167-110.65 20.603-41.857-7.467 79.858-49.57 36.696-112.15-10.56-15.311-30.142-13.024-39.512-15.846-16.08-4.842 1.624-10.855 18.089-33.013 30.257-40.722 134.58-12.064 134.58 66.201z"/> <path fill="#fff" d="m2124.3 961.36c-70.539 3.522-87.742-39.927-132.54-12.52-76.551 46.837-50.965-14.464-25.922-25.957 72.786-33.406 84.223-92.611 130.11-105.36 55.201-15.34 112.76 26.197 45.424 42.23-73.166 17.422-34.537 107.19 43.838 39.351 29.823-25.816 34.967 62.257-60.91 62.257z"/> <path fill="#fff" d="m952.1 641.89c24.329-3.558 77.209 15.587 52.887 17.488-16.217 1.267-62.389-9.315-95.192 49.749-32.991 59.401-29.467 111.66-35.271 133.86-15.981 61.113-72.946 57.515-82.085-60.873-1.848-23.952 60.861-140.22 159.66-140.22z"/> <path fill="#fff" d="m1543.8 354.05c1.821 22.09-2.55 45.533-23.325 53.658-43.933 17.182-63.877 42.126-74.21 49.605-23.452 16.973-12.679-25.818-71.018-28.145-82.412-3.288-72.356 21.665-96.849 7.966-18.044-10.092-34.29-8.999-24.3-17.36 12.342-10.329 93.927-28.377 113.48-48.03 19.468-19.564 173.06-55.947 176.22-17.694z"/> <path fill="#fff" d="m2947.6 3221.9c-32.987 19.109-33.008 25.377-36.751 21.963-18.859-17.208 44.751-47.257 67.209-105.06 10.781-27.746 43.033-165.91 43.918-190.89 0.59-16.65 26.424-14.791 28.282 1.847 0.51 4.571-14.839 92.473-22.474 113.8-42.817 119.58 38.694 189.52-2.587 176.62-13.603-4.254-18.319-30.156-28.684-27.916-12.032 2.6-20.572 85.355 7.063 130.91 29.687 48.94 95.657 92.486 52.504 78.042-156.21-52.291-63.635-225.29-108.48-199.31z"/> <path fill="#fff" d="m926.86 727.51c7.082 0.646 5.044 30.977 15.94 29.569 16.035-2.072-16.236-52.857 43.097-76.323 4.239-1.677 63.466 6.341 87.938 48.598 13.396 23.131 20.711 33.712 8.236 33.676-68.045-0.198-152.24 58.456-125.4 117.87 2.589 5.733 17.265 21.507-13.323 17.037-80.534-11.769-24.9-171.2-16.487-170.43z"/> <path fill="#fff" d="m2895.6 685.78c-42.872-10.008 23.394-38.561 40.498-114.33 12.731-56.395 97.258-49.757 88.288-6.606-9.172 44.133-5.048 63.429 39.038 47.706 22.521-8.032 12.187 26.706 3.621 41.268-7.405 12.588-10.422 13.219-67.221 27.397-72.929 18.205-19.437 24.352-104.22 4.561z"/> <path fill="#fff" d="m364.48 3486.5c41.467-174.86 44.952-196.6 36.286-243.24-8.395-45.181 1.067-81.159-16.386-130.74-5.758-16.359-14.6-32.407-21.899-16.674-13.1 28.239-28.845 69.246-31.917 49.132-2.95-19.313 20.681-37.707 19.676-84.746-1.94-90.89-9.8-62.565-4.237-149.12 1.126-17.521 10.384-24.177 14.003-1.115 17.843 113.72 45.789 164.36 57.703 262.16 23.504 192.95-9.336 123.29 50.21 263.65 8.201 19.329-14.278 34.187-43.671-57.294-5.165-16.076-20.576 9.516-21.634 23.174-1.704 22.008-38.134 138.43-38.134 84.811z"/> <path fill="#fff" d="m2537.2 3915.2c48.548 4.672 73.332 36.271 49.223 58.951-16.022 15.072 2.597 36.901 22.81 44.35 17.309 6.38 32.483 35.187 12.123 44.8-21.807 10.296-57.086-1.589-69.132-9.162-22.725-14.286-32.473-36.205-74.796-29.501-16.976 2.689-32.043 21.688-50.894 29.263-25.545 10.265-7.285-36.49 7.688-51.833 71.136-72.898 36.956-79.889 102.98-86.868z"/> <path fill="#fff" d="m1294.3 4277.6c-46.733 3.556-6.687-46.54-5.467-60.297 3.839-43.285-52.346-19.812-64.976 7.605-13.889 30.148-64.969-26.601 79.302-123.64 60.933-40.987 28.011-46.829 60.085-52.092 28.959-4.747-20.671 68.06-7.467 170.06 1.672 12.917-39.305 60-61.477 58.369z"/> <path fill="#fff" d="m3138.5 2672.1c-9.897-21.224-11.757-31.673-16.636-24.247-3.161 4.811-18.286 173.91-37.788 179.77-19.828 5.961 6.044-63.625 2.348-234.84-1.043-48.292-33.069-137.6-30.894-158.69 7.421-71.923 57.87 135.27 61.128 146.15 11.662 38.927 71.8 41.348 99.943 19.836 4.325-3.306 8.367 0.822 5.062 6.778-29.612 53.363-99.025 2.769-55.05 74.316 56.167 91.381 95.615 69.705 103.15 123.92-4.49-13.799-81.309-25.87-131.26-132.99z"/> <path fill="#fff" d="m3240.6 2674.1c-58.897 0.568 46.638-105.64-6.232-102.3-14.963 0.944-35.9 22.171-62.665 20.844-20.826-1.032-18.426-21.772-9.308-35.933 12.356-19.191 19.412-63.041 116.42-62.235 35.814 0.298 32.057-7.433 63.473-17.986 5.738-1.927 11.911 2.338 6.304 9.779-68.34 90.694-34.905 184.72-107.99 187.83z"/> <path fill="#fff" d="m2739.9 724.34c-4.281-85.26 44.726-110.1 44.834-84.708 0.352 82.807 67.173 70.04 62.906 33.829-3.533-29.981 55.213 35.693-7.706 121.9-24.499 33.568-18.681 5.605-35.587 52.272-8.803 24.299-21.818 10.618-24.777 3.159-16.708-42.121-32.307 0.558-39.67-126.46z"/> <path fill="#fff" d="m267.82 1082.9c60.371 4.769 141.78-39.704 117.36-94.351-21.248-47.553-40.667-39.597-33.612-62.636 7.135-23.3 48.993-15.756 68.13-5.277 145.45 79.646-13.555 190.15-122.29 187.27-21.247-0.564-88.581-25.002-29.592-25.002z"/> <path fill="#fff" d="m3191.3 606.82c16.622-15.291 8.202-23.76 25.036-29.745 49.547-17.617 90.41 10.597 104.54 42.622 62.26 141.16 47.142 85.307-27.28 91.938-69.478 6.189-149-61.848-102.29-104.82z"/> <path fill="#fff" d="m720.71 2960.5c12.791 2.961 14.038 62.092 72.796 176.64 69.996 136.46 105.15 161.82 81.917 159.84-3.818-0.325-8.639-0.573-10.388-3.943-6.563-12.649-19.226-19.521-27.41-31.216-49.269-70.414-72.548-44.333-90.229-78.044-23.121-44.083-22.736-58.186-41.594-71.34-52.395-36.548 12.891-151.31 14.908-151.94z"/> <path fill="#fff" d="m653.7 583.31c-87.829-3.362-29.686-7.396-22.598 64.681 0.515 5.24-3.565 9.496-9.396 2.072-6.316-8.041 9.112 7.304-26.475-49.492-18.377-29.33-142.49-77.043-157.58-119.4-21.017-58.974-72.288-120.85-65.506-188.38 1.021-10.171 1.163-15.984 6.577-16.165 23.335-0.779-6.157 95.258 86.916 108.29 19.591 2.744 21.517 27.117 6.098 28.848-18.403 2.066-41.172-17.195-39.065 0.443 4.816 40.314 48.597 111.02 131.44 86.308 13.932-4.156 18.546-8.259 22.581-1.455 7.918 13.349-13.634 18.493-31.201 25.383-21.674 8.502 53.335 47.608 102.82 38.694 59.774-10.767 61.208-16.216 63.795-8.749 6.372 18.393-57.479 31.429-68.411 28.919z"/> <path fill="#fff" d="m2636.5 741.7c-24.521 149.84-85.632 98.279-67.243 71.393 12.24-17.894 10.556-49.407 7.709-70.945-5.911-44.723-46.422-59.33-50.52-68.423-22.968-50.972-72.588-55.902-75.951-57.328-38.432-16.298 161.52-69.509 186 125.3z"/> <path fill="#fff" d="m1097.9 4257.4c-19.872-0.141-16.605-13.054-26.654-18.733-19.161-10.828-14.928-24.359-15.629-84.196-1e-3 -0.119-11.127-94.849 15.315-100.25 17.798-3.637 11.891 28.961 52.885 45.267 42.109 16.75 74.376 55.858 60.102 109.24-3.52 13.164-55.129-44.181-56.663-1.805-1.01 27.857 3.214 51.16-29.356 50.476z"/> <path fill="#fff" d="m472.73 2182.6c-28.105 5.566-32.178-20.102-71.445-19.542-115.17 1.643-94.664-4.154-81.874-61.216 9.927-44.287 54.022 6.807 119.84-31.434 25.837-15.011-0.145 42.736 87.498 73.995 31.123 11.101 37.05 1.43 46.367 8.656 6.19 4.799 8.778 14.214-3.992 14.613-26.586 0.831-71.812 16.329-96.389 14.928z"/> <path fill="#fff" d="m1327.8 4492.9c-8.388 93.365-6.91-12.425-114.64-20.052-45.725-3.239-78.877-16.165-59.772-58.258 14.697-32.38 38.306-19.243 63.149-9.685 73.891 28.441 45.242-35.714 2.467-54.134-35.533-15.296 71.22-37.519 77.573 25.012 5.066 49.876 35.692 74.245 31.22 117.12z"/> <path fill="#fff" d="m1895.7 62.019c86.125 0.364 94.179 88.506 98.046 100.84 17.851 56.968 16.514 77.955-2.116 100.07-40.507 48.084-1.772-125.05-91.007-129.93-59.694-3.269-95.454 74.264-112.2 61.528-4.112-3.128 46.046-147.36 107.27-132.51z"/> <path fill="#fff" d="m1491.8 4474.9c98.067-2.02 93.312 85.857 131.86 132.27 6.834 8.23-13.063 11.571-19.6-2.199-8.026-16.908-52.667-77.427-130.1-60.529-59.993 13.096-45.241 129.16-58.276 106.37-24.926-43.567-43.181-61.135-21.125-107.09 29.576-61.632 74.271-71.067 97.242-68.827z"/> <path fill="#fff" d="m2114.6 422.5c-48.89-0.695-34.714-16.866-68.737-19.064-132.53-8.559-68.511 34.469-157.82-2.621-13.636-5.663-11.371-7.39-25.273-50.721-8.716-27.165 13.586-14.005 51.767-24.345 28.916-7.831 65.611 20.276 98.85 22.876 51.611 4.037 88.106 23.262 126.08 57.336 15.697 14.087-8.902 14.714-24.859 16.539z"/> <path fill="#fff" d="m3073.7 384.48c45.301 130.14 102.39 67.443 105.8 103.77 1.664 17.719-43.386 11.369-56.217-0.141-5.483-4.918-30.846-16.818-26.651-3.41 5.417 17.316 40.911 64.066 65.128 78.303 41.369 24.322 2.547 51.512-37.092 6.297-52.82-60.247-38.112-61.091-64.471 17.315-3.946 11.735-18.87 14.514-22.669 10.505-8.977-9.471 31.31-53.272 12.571-121.66-0.403-1.47-21.112-198.24 12.158-197.91 26.168 0.259-5.791 57.439 11.439 106.93z"/> <path fill="#fff" d="m2819.5 3669.6c-2.666-93.497 253.61-93.083 282.52-9.195 22.607 65.613 20.338 52.573-49.63-0.288-30.235-22.844-53.51-20.933-112.18-19.341-41.861 1.136-70.87 53.753-83.87 93.051-9.586 28.975-38.723-33.8-36.836-64.227z"/> <path fill="#fff" d="m3038.1 4197.3c3.202 25.296-32.895 111.04-43.497 69.693-6.213-24.235-14.389-75.259-38.11-107.13-28.971-38.929-29.958-71.24-61.658-85.201-25.737-11.335-40.881-20.853-12.963-23.799 55.288-5.833 71.501-11.67 88.196 10.443 20.115 26.643 67.189 39.761 68.032 136z"/> <path fill="#fff" d="m1568.6 491.44c1.207 17.908-3.375 44.753-21.341 44.982-30.515 0.389-28.581 20.132-93.071 32.28-43.129 8.124-109.58 70.182-93.033 28.065 5.477-13.943-5.686-11.841 14.445-28.586 87.986-73.192 44.464-109.44 166.72-116.99 26.148-1.614 26.28 14.573 26.28 40.245z"/> <path fill="#fff" d="m1111.2 993.06c-22.745 2.523-95.959-3.177-101.05-12.678-9.762-18.211-143.21 32.281-163.28-63.189-4.596-21.865 13.972-9.097 21.767-24.13 20.637-39.798 21.128 27.838 86.612 28.792 57.545 0.838 110.9 7.799 64.093 41.318-10.759 7.706-2.885 15.595 5.201 11.262 23.841-12.776 31.783-3.742 161.39-10.562 37.707-1.984 25.226 29.187-74.731 29.187z"/> <path fill="#fff" d="m347.51 3399.6c-0.858 38.122-28.668-9.521-91.467 60.329-17.758 19.752-73.448-5.072-87.737-74.148-12.493-60.391 15.078-1.027 69.347-35.854 42.055-26.989 100.01-1.621 109.86 49.673z"/> <path fill="#fff" d="m2908.2 2312.7c30.911-1.899 216.79-20.04 172.77 38.494-13.471 17.912-7.861 26.639-31.269 49.215-17.909 17.271-53.083 4.881-64.174-6.481-16.722-17.131 3.083 12.73-135.84-66.23-30.745-17.476 58.412-14.998 58.515-14.998z"/> <path fill="#fff" d="m336.26 4134.4c14.741-182.63 135.89-146.9 107.95-132.45-16.98 8.78-47.031 33.439-42.088 72.291 4.94 38.826 95.34-69.864 106.43-28.667 20.073 74.55-99.659 29.915-133.42 132.61-18.616 56.619-38.888-43.682-38.874-43.782z"/> <path fill="#fff" d="m269.94 3068.7c-7.039-93.156 43.018-228.27 77.723-315.64 13.286-33.448 27.182-142.94 26.735-105.7-0.364 30.327 14.964 44.387-3.136 98.062-42.912 127.26-72.622 186.66-76.27 292.7-5.628 163.62 33.83 192.38 24.794 246.21-8.723 51.96-54.097-119.97-49.846-215.62z"/> <path fill="#fff" d="m3045.5 2453c0.018 0.112-24.06 158.43 20.452 365.12 17.481 81.182 26.072 84.951 37.081 131.61 4.778 20.248-13.807 38.63-18.67 21.804-3.488-12.07-39.006-93.225-36.862-119.76 1.119-13.834-12.132-19.671-19.944-5.302-25.825 47.493-30.845 16.974-23.853 3.833 55.793-104.85-8.46-254.42 26.097-416.85 1.272-5.977 13.427-11.524 15.699 19.549z"/> <path fill="#fff" d="m2587.2 3894.4c-2-4.09-17.09-36.551-15.335-48.528 3.306-22.566 15.979 18.669 84.253-0.785 6.471-1.844 60.598-25.371 74.167 19.028 5.079 16.619-46.155 24.909-16.97 50.627 58.421 51.461-69.458 95.488-126.12-20.342z"/> <path fill="#fff" d="m455.43 4154.5c21.422-14.288 46.631-36.554 84.708-34.8 2.22 0.103 54.239 7.923 57.695 10.543 7.298 5.532-1.354 11.458-7.01 12.495-66.756 12.242-121.97 90.317-127.93 133.53-7.981 57.851 5.362 71.909-15.503 63.054-33.603-14.262-53.151-144.01 8.04-184.82z"/> <path fill="#fff" d="m263.79 1058.9c-24.107 1.862-75.01-20.248-72.473-37.327 3.031-20.406 53.416-75.075 112.55-76.773 24.791-0.712 37.958 22.772 51.984 35.306 45.343 40.521-43.356 84.836-92.063 78.794z"/> <path fill="#fff" d="m1786 391.32c-3.296-71.28-14.337-49.401-0.433-82.429 4.342-10.314 40.2-6.595 47.457 25.331 49.974 219.84-129.96 253.78-103.24 195.36 8.323-18.195 51.944-48.256 56.211-138.27z"/> <path fill="#fff" d="m2863.1 4035.7c-70.918-0.349-63.736-12.806-104.64-2.654-32.231 8.002-31.638 25.095-51.867 39.366-31.623 22.309-24.158 45.016-35.904 42.627-7.852-1.597-32.393-152.65 163.57-137.55 61.66 4.75 162.37 58.212 28.837 58.212z"/> <path fill="#fff" d="m1089.3 691.41c37.959 2.322 68.118 11.116 75.387 47.423 3.721 18.586 15.219 47.421 13.395 59.374-22.415 146.84-112.74 157.5-124.09 126.97-4.145-11.141 17.452-5.039 35.935-35.794 90.956-151.34-53.092-197.98-0.623-197.98z"/> <path fill="#fff" d="m2108 4331.8c-164.9-37.992-251.76-375.83-237.07-382.97 33.695-16.39 107.58 326.95 237.84 362.14 6.127 1.656 26.251 2.774 24.699 9.912-1.052 4.84-19.994 11.282-25.469 10.914z"/> <path fill="#fff" d="m2612.3 4386.5c-14.213 8.517-44.238 39.702-68.642 29.236-61.944-26.568-41.209-58.769 24.566-106.92 47.192-34.547 18.959-102.62 47.974-101.64 23.155 0.784 31.774 157.95-3.898 179.33z"/> <path fill="#fff" d="m1883.2 175.57c47.252 5.968 38.245 22.53 50.115 32.663 17.485 14.927 15.154 32.428 22.953 66.814 4.689 20.673-31.656 36.982-71.411 5.484-12.496-9.9-23.292-24.347-44.154-24.034-30.109 0.452-47.704 1.086-61.84-12.839-11.263-11.096-43.405-12.013 10.4-26.823 36.502-10.047 28.098-33.332 93.937-41.265z"/> <path fill="#fff" d="m535.47 3761.1c1.591 8.365 21.568 22.179 10.126 43.66-18.531 34.792-30.02 47.544-49.479 54.985-41.783 15.976-66.215-24.518-76.989-34.426-20.325-18.688-44.494-4.642-36.894-20.144 34.535-70.442 146.81-77.854 153.24-44.075z"/> <path fill="#fff" d="m167.86 2446.8c4.636-73.094 33.655-74.49 44.683-48.65 23.793 55.748 65.309 24.809 95.862 42.013 15.204 8.56 22.501 21.758 13.413 37.708-12.309 21.603-84.795-21.925-75.39 28.8 5.306 28.62 21.432 29.971 9.341 45.819-23.993 31.449-93.142-58.781-87.909-105.69z"/> <path fill="#fff" d="m296.56 3761.9c2.676-88.966 96.892-147.05 102.2-151.63 39.117-33.721 89.024 5.084 87.829 35.104-1.458 36.634-53.459-57.265-131.32 68.262-20.375 32.848 3.387 47.104 0.769 93.25-0.545 9.611-4.227 22.928-12.737 18.141-21.719-12.218-46.743-5.753-46.743-63.127z"/> <path fill="#fff" d="m302.75 1919.8c0-161.95 55.792-296.31 45.799-318-13.952-30.283 16.692-49.554 10.048-76.919-3.527-14.526 0.744-35.457-6.627-56.794-7.867-22.77 6.386-46.827 15.155-46.378 46.209 2.365-39.382 415.96-39.279 416.03 3.413 2.319-1.181 39.764-2.448 45.274-10.063 43.76 0.628 156.83-9.531 156.84-11.637 0.013-13.017-120.06-13.117-120.06z"/> <path fill="#fff" d="m3098.6 2039c95.055-107.17 124.71-377.57 125.12-452.32 0.459-83.714 22.213-71.113 21.633-26.852-6.712 512.16-230.91 574.05-146.76 479.17z"/> <path fill="#fff" d="m333.98 915.18c-1.973 10.999-19.439 14.013-21.69-0.475-8.133-52.331-45.052-48.009-73.948-48.776-49.082-1.303-45.066 12.135-62.913 17.278-34.325 9.892-36.471 46.147-39.89 53.504-6.369 13.707-42.236-3.008-37.556-39.862 17.526-138 253.37-78.544 236 18.331z"/> <path fill="#fff" d="m2785.8 3787.8c5.164-55.248 8.379-4.119 8.115-90.787-0.012-3.951-4.529-10.244 1.323-11.589 15.717-3.613 1.493 44.428 41.261 79.344 51.802 45.483 14.598 102.42 67.136 123.12 127.96 50.423-105.24 83.261-117.84-100.09z"/> <path fill="#fff" d="m1382.8 674.21c-7.516 15.057-38.177 125.72-110.36 118.46-17.241-1.734-22.653-21.975-7.99-31.628 37.537-24.709 21.729-48.002-24.264-25.767-32.948 15.928-25.775-20.653-17.151-28.264 49.033-43.268 175-63.301 159.77-32.799z"/> <path fill="#fff" d="m3098.7 3980.1c2.796-10.386 16.077-6.204 20.705 13.588 6.931 29.643 30.809 52.867 57.945 42.563 45.32-17.212-6.333-75.994 2.242-80.077 6.09-2.902 15.95 6.388 19.846 11.88 39.873 56.2 8.925 59.372 41.026 119.36 44.636 83.434-175 16.159-141.76-107.31z"/> <path fill="#fff" d="m332.58 382.23c-2.73-56.02-11.361-55.156-13.365-62.995-5.873-22.974 17.002-22.651 19.346-6.65 21 143.33 18.541 47.822-6.699 187.33-11.244 62.146 38.468 86.021 41.331 101.35 1.617 8.656-13.14 4.764-19.959-0.257-32.352-23.82-36.185-62.351-55.537-25.638-29.478 55.925-138.21 80.441-139.45 63.96-0.653-8.693 5.289-2.409 42.931-14.23 83.169-26.119 108.87-113.16 77.035-88.023-58.16 45.937-66.544 20.944-57.524 17.673 70.123-25.426 116.25-106.78 111.89-172.52z"/> <path fill="#fff" d="m3066.2 3874.1c-4.076 54.99-72.121 59.066-104.44 36.073-34.712-24.694-13.695-22.046-44.98-34.508-18.336-7.303-30.63-29.691-29.315-41.406 3.763-33.545 52.825 76.867 138.72-29.063 18.711-23.079 41.465 40.228 40.02 68.904z"/> <path fill="#fff" d="m912.15 4113c4.576 0.443 45.337-0.878 53.112 10.968 17.725 27.009 62.266 34.711 59.571 80.572-0.254 4.329-3.601 7.583-7.085 2.937-17.749-23.681-37.023-6.933-81.618-32.532-80.04-45.945-122.38 26.79-122.48 26.882-29.251 26.819-50.99-99.916 98.501-88.827z"/> <path fill="#fff" d="m502 3933.8c-170.03-5.732-151.46-156.16-76.113-70.239 21.7 24.746 42.885 23.207 75.339 17.593 55.588-9.614 58.726-111.6 79.074-18.372 8.708 39.894-17.817 71.018-78.3 71.018z"/> <path fill="#fff" d="m3017.4 2090.9c29.868-2.635 120.93 21.661 90.686 64.073-10.425 14.618-29.647-8.471-64.717-15.331-85.726-16.769-117.32 11.948-180.14 33.797-19.303 6.715-61.753-28.993 46.766-60.012 28.291-8.089 63.369-23.723 107.4-22.527z"/> <path fill="#fff" d="m2912.5 1066.2c-8.762-20.056-19.264-31.884 0.064-47.29 9.45-7.533 26.923 44.911 110.47-0.827 14.298-7.826 2.471 7.714 24.449 21.933 43.803 28.339 58.589 7.684 61.174 24.298 6.376 40.967-170.91 59.676-196.16 1.886z"/> <path fill="#fff" d="m3127.7 2923.5c2.844-10.749-1.163-24.755 4.951-49.445 8.196-33.099-1.189-40.707-11.026-101.4-11.123-68.618 31.648-19.826 31.674 68.818 0.024 82.31 6.294 74.642 0.95 79.542-1.726 1.583-49.18 145.37-58.244 220.17-13.299 109.77 14.948 153.16 1.51 139.64-65.595-66.042 30.158-357.22 30.185-357.32z"/> <path fill="#fff" d="m1985.5 514.86c7.704 6.054 65.491 75.371 33.324 67.982-7.937-1.823 6.469 3.749-68.897-40.273-39.343-22.981-119.27 2.782-105.07-40.176 10.645-32.207 8.846-38.18 18.627-42.163 79.497-32.373 72.682 15.864 122.02 54.63z"/> <path fill="#fff" d="m1664.6 241.13c-13.503 3.729-19.649 19.577-29.991-0.346-70.302-135.42-78.006-162.49-26.391-183.15 22.833-9.14 96.744 172.35 56.382 183.5z"/> <path fill="#fff" d="m211.91 1606.2c2.338-12.815 28.943 15.581 19.662 43.499-19.069 57.362 66.556 398.22 61.349 420.98-12.568 54.949-106.73-323.55-81.011-464.48z"/> <path fill="#fff" d="m3164.2 181.77c7.687 84.479-124.66 106.33-153.57 20.546-35.54-105.43 140-169.74 153.57-20.546zm-126.97-3.013c-3.146 69.659 110.65 75.385 110.49-7.679-0.133-66.781-111.22-69.729-110.49 7.679z"/> <path fill="#fff" d="m1173.8 687.15c0-5.174 1.975 12.621-4.213 15.24-11.492 4.865-14.698-28.802-61.821-31.698-57.333-3.524-69.833-6.778-75.963-23.827-6.843-19.034-142.85-26.082 0.278-51.969 34.956-6.322 140.49 24.733 141.72 92.254z"/> <path fill="#fff" d="m775.76 782.01c-18.024 51.52 56.564 140.42 55.716 201.56-0.171 12.359-6.999 36.914-18.415 25.667-26.381-25.993-134.2-198.21-45.357-234.42 3.852-1.57 7.276 1.35 8.056 7.184z"/> <path fill="#fff" d="m605.17 3839.1c-8.328 10.915-12.818-22.02-23.908-42.226-47.484-86.521-31.708-87.212-50.171-95.693-14.503-6.661-43.434-39.056-20.778-45.263 53.283-14.597 67.274 20.676 79.131 26.758 44.402 22.773 36.132 129.68 15.726 156.42z"/> <path fill="#fff" d="m736.82 953.41c3.156 28.091-33.971 48.683-43.402 75.988-15.087 43.68-31.992 42.995-25.903 19.313 9.739-37.879 9.98-75.365-5.269-112.01-13.815-33.199 7.939-73.569 39.146-87.065 20.24-8.754 35.419 100.57 35.428 103.78z"/> <path fill="#fff" d="m964.58 4304.2c-21.716 0-54.839 5.353-70.258-26.133-11.516-23.515 5.965-7.132 36.651-58.391 8.402-14.035 11.692-14.652 28.22-9.647 35.197 10.66 46.135-5.088 64.967 70.074 6.359 25.382-35.399 24.057-59.58 24.097z"/> <path fill="#fff" d="m232.83 223.69c-31.248-49.57 10.114-110.79 57.996-108.03 36.146 2.078 71.884-3.086 88.58 29.855 60.684 119.73-87.196 172.37-146.58 78.178zm81.924 27.081c75.425 4.188 75.368-93.739 27.467-113.3-111.51-45.526-131.01 109.4-27.467 113.3z"/> <path fill="#fff" d="m1634.5 539.31c-0.624 18.208-11.971 18.61-28.614 12.455-49.14-18.174 15.047-29.953-26.594-109.27-12.484-23.779-26.006-50.468-17.468-79.874 6.104-21.025 0.636-42.644 10.887-51.563 42.219-36.73 7.413 60.262 34.62 102.07 41.293 63.455 10.288 69.909 27.169 126.18z"/> <path fill="#fff" d="m2262.7 711.7c-2.023-14.626 1.143-27.941 15.382-78.255 24.17-85.403 193.83-49.9 141.26-20.398-16.458 9.237-34.15-1.617-47.271 8.934-6.594 5.303-16.063 7.644-24.648 9.704-10.88 2.611-18.775 10.528-28.949 14.407-28.35 10.81-37.742 198.44-55.778 65.608z"/> <path fill="#fff" d="m576.68 4250.8c-11.805 1.777-44.209-19.877-50.881-45.459 7.52-12.752 30.294-31.466 55.533-36.371 30.15-5.862 33.194-27.1 61.981-11.546 90.178 48.727-60.498 93.448-66.633 93.376z"/> <path fill="#fff" d="m321.61 2697.4c-0.175 8.477 11.676 55.794-3.334 57.181-23.79 2.198-3.78-142.23-32.586-107.09-6.557 7.999-16.671 11.455-22.31 20.235-2.075 3.231-6.196 4.84-10.138 2.727-22.461-12.04 39.289-37.337 57.549-100.74 13.119-45.554-59.43-47.789-38.548-65.059 4.753-3.931 8.867 2.106 14.838 5.472 53.109 29.932 57.315-67.334 65.533-82.856 15.136 21.162-28.592 153.56-31.004 270.13z"/> <path fill="#fff" d="m247.4 879.56c33.036-3.703 66.029 44.53 44.731 44.787-81.032 0.977-124.45 128.33-129.56 59.663-3.511-47.099-27.922-92.914 84.833-104.45z"/> <path fill="#fff" d="m1400.6 270.66c-29.442-73.663 57.152-31.482 101.43-32.473 71.456-1.599 109.35 28.123 75.86 37.218-11.003 2.988-164.32 27.721-177.29-4.745z"/> <path fill="#fff" d="m172.72 537.1c-16.375-3.986-17.91-7.51-28.86-2.91-48.889 20.539-78.097-42.695-63.5-62.214 10.734-14.353 30.292-28.401 39.701-8.665 18.887 39.616 44.121 21.167 68.023 12.391 36.957-13.571 77.501 38.695 31.957 51.942-15.883 4.619-33.164 1.787-47.321 9.456z"/> <path fill="#fff" d="m701.82 4244.9c6.352 47.823-129.94 89.453-178.87 48.616-49.358-41.191 90.324 6.718 158.16-81.465 11.85-15.404 23.287 19.348 20.71 32.849z"/> <path fill="#fff" d="m1629.4 3886.5c2.124 120.27-98.429 25.885-27.562-56.331 13.338-15.474 8.701-15.197 29.731-83.573 3.31-10.76 22.202-19.396 23.565-8.854 7.199 55.688-26.222 121.16-25.734 148.76z"/> <path fill="#fff" d="m3086.7 1680.1c-30.133 126.92 24.255 358.03-6.585 354.71-15.168-1.632-24.623-217.29-24.63-217.41-8.332-150.54 31.215-178.41 31.215-137.3z"/> <path fill="#fff" d="m1235.8 4385c-27.781 2.724-38.031-13.918-86.119-21.026-17.358-2.566-79.179-8.575-94.287-14.034-9.024-3.259-7.65-13.152 1.012-14.055 110.4-11.505 91.245-140.46 107.96-97.028 10.154 26.384-34.514 80.646-15.906 74.309 68.011-23.152 95.701-102.67 116.22-97.052 14.661 4.017-48.384 84.226-117.14 121.52-23.345 12.661 46.308 10.074 88.435 47.626l-0.184-0.261z"/> <path fill="#fff" d="m257.63 1388.1c27.523-83.227-2.321-268.12 21.5-265.46 11.998 1.337 8.946 14.584 31.866 14.42 9.579-0.069 19.186 3.999 13.908 13.568-9.805 17.776-32.442 8.832-31.331 42.673 4.312 131.29-22.442 303.36-35.943 194.8z"/> <path fill="#fff" d="m3102.2 1957.9c0.033-38.656 23.137-69.928 21.518-143.58-6.065-275.83 44.05-206.54 33.671-179.31-8.93 23.43-6.341 182.83-20.863 241.62-4.61 18.661-32.07 123.85-34.326 81.28z"/> <path fill="#fff" d="m340.22 809.88c55.178 0 65.896 3.361 112.52 93.052 3.133 6.027 1.943 10.428-9.29 9.893-13.676-0.652-18.408-22.785-61.745-20.003-43.447 2.787-22.293-48.616-70.224-66.197-34.794-12.763 28.649-22.244 28.74-16.745z"/> <path fill="#fff" d="m1378.4 4208.7c-2.69-26.867 110.62-81.707 156.78-155.75 45.316-72.674 56.943-95.768 68.599-87.15 10.438 7.718-57.82 118.99-57.868 119.09-19.307 40.703-51.171 44.101-102.98 84.523-64.083 50-64.535 64.387-64.535 39.282z"/> <path fill="#fff" d="m1623.7 4552.5c-3.247-12.678 1.512-11.58 20.178-12.054 38.825-0.985 45.023-28.875 73.433-10.151 24.059 15.856 45.811 11.841 33.859 28.483-66.519 92.629-115.02 42.323-127.47-6.278z"/> <path fill="#fff" d="m3074.8 1135.1c-0.118-7e-3 -44.403 0.58-42.294-13.235 1.507-9.873 7.009 2.83 51.289-15.144 42.072-17.078 33.631-44.472 52.131-43.281 43.373 2.794 78.024-20.095 91.848-22.081 9.238-1.327 11.118 6.037 6.354 9.586-18.605 13.864-7.67 39.053-73.056 61.157-22.332 7.55-49.754 21.167-86.272 22.998z"/> <path fill="#fff" d="m1114.7 487.61c6.881 0.948 5.329 3.111-18.192 54.008-7.575 16.391-16.124 19.227-92.068 39.209-61.483 16.177-68.357 59.517-83.533 43.755-17.946-18.637 155.36-131.97 193.79-136.97z"/> <path fill="#fff" d="m223.42 398.31c-0.277-56.419 27.069-109.34 35.052-118.84 7.253-8.631 18.767-2.517 17.667 7.393-2.343 21.115-5.953-8.281-9.198 61.531-1.543 33.204 13.807 51.644 19.218 64.866 13.739 33.573-24.714-1.963-25.755 31.567-0.583 18.787 8.924 24.912 1.974 28.988-9.512 5.578-41.175-35.933-38.958-75.507z"/> <path fill="#fff" d="m3225 1273.4c-15.581-11.018-19.261 37.239-18.07 54.668 4.863 71.14-73.608 168.85-61.406 136.44 40.16-106.71 80.836-165.33 30.157-262.58-9.694-18.602-15.396-41.485-24.521-53.601-9.233-12.258 8.835-27.192 18.157-10.928 8.207 14.317 21.883 55.934 59.11 110.7 22.504 33.102 28.484 47.874-3.427 25.307z"/> <path fill="#fff" d="m2651.8 906.52c0.067-3.822 41.46-99.532 52.524-83.736 8.166 11.659 34.623 59.582 28.902 72.632-24.402 55.658-25.166 84.518-45.987 65.712-4.545-4.104-34.574-33.02-35.439-54.608z"/> <path fill="#fff" d="m2376.8 4325.7c-3.117-18.567 30.7-40.031 35.434-16.968 4.952 24.125 41.643 49.256 50.006 51.567 21.732 6.007 24.628 19.088 37.857 40.201 18.983 30.294-104.87 34.954-123.3-74.8z"/> <path fill="#fff" d="m2640.3 4176.5c0.563 23.278-56.434-11.819-66.68-29.56-42.039-72.785-117.64-15.361-127.23-28.509-16.471-22.575 133.19-101.69 193.91 58.069z"/> <path fill="#fff" d="m1985.3 4025.4c3.001 30.787 36.51 64.893 10.975 70.888-14.727 3.458-32.984-48.824-35.134-59.623-8.372-42.061-17.445-33.566-19.326-44.145-4.459-25.079-31.433-19.04-27.903-32.33 10.613-39.961 177.19 97.603 160.74 115.71-18.695 20.576-90.317-96.335-89.353-50.504z"/> <path fill="#fff" d="m3120.6 928.33c80.479 6.923-8.698 78.247-21.161 94.286-18.768 24.154-68.452-1.468-44.523-38.86 14.362-22.442 39.147-56.505 65.684-55.426z"/> <path fill="#fff" d="m2019.5 623c-1.033 47.54-42.131-29.619-134.08-52.058-21.966-5.361-34.686 23.467-64.74-6.21-9.481-9.362-4.602-16.877 1.853-26.658 14.716-22.299 26.555 8.027 67.08 7.394 40.623-0.634 130.17 64.67 129.89 77.532z"/> <path fill="#fff" d="m429.84 3966.7c-160.25-11.479-139.98-236.48-60.395-67.146 4.801 10.215 12.096 10.848 16.436 15.462 33.833 35.969 74.758 30.892 74.516 38.011-0.052 1.541-7.59 12.911-30.557 13.673z"/> <path fill="#fff" d="m1491.3 4162.4c-25.389 142.83-180.17 187.35-182.63 184.39-24.964-30.044 71.288-21.066 143.12-140.35 21.245-35.275 21.147-41.16 33.071-45.372 3.137-1.107 6.511-0.704 6.439 1.327z"/> <path fill="#fff" d="m419.91 3087.5c-12.336-42.999-9.507-123.28-27.392-165.02-0.693-1.617-33.128-111.36-17.223-113.14 1.587-0.178 55.405 99.238 57.044 204.56 0.701 45.093-4.5 101.24-12.429 73.599z"/> <path fill="#fff" d="m2265.7 779.49c4.159 5.824 72.39 52.545 64.961 80.507-5.38 20.254 4.856 63.406-24.024 44.879-59.16-37.955-69.071-164.78-40.937-125.39z"/> <path fill="#fff" d="m810.96 671.89c-23.688 0.041-30.826-12.885-34.211 3.872-3.864 19.124 7.417 12.646 5.653 64.059-0.296 8.624-9.687 14.098-13.533 7.049-6.653-12.192 1.661-34.221-29.583-83.115-29.25-45.776-64.558-49.011-66.272-59.608-6.489-40.119 107.5 75.697 183.41 41.813 24.249-10.825-20.779 30.461-45.461 25.93z"/> <path fill="#fff" d="m445.11 3676.8c86.896 18.41 58.266 32.06 2.568 42.785-66.272 12.758-67.154 84.122-77.915 45.187-11.141-40.311 14.431-88.918 75.347-87.972z"/> <path fill="#fff" d="m182.89 1088.4c-110.48-4.012-59.342-165.59-45.752-100.46 11.047 52.949 142.62 106.24 45.752 100.46z"/> <path fill="#fff" d="m1484.8 4048.8c4.95-108.65 66.424-136.98 71.116-113.53 2.21 11.047-71.116 221.82-71.116 113.53z"/> <path fill="#fff" d="m674.68 3932c3.618 16.825-8.794 24.289-14.181 31.482-15.834 21.148 31.269 17.759 44.583 11.997 5.546-2.401 12.922-7.871 16.094-0.569 7.175 16.523-114.59 29.733-152.95-13.047-6.35-7.083-13.904-1.954-10.271 7.506 17.502 45.582 39.693 47.063 24.547 53.511-26.863 11.436-75.941-112.61-7.79-73.071 34.985 20.295 52.294 16.283 71.036 3.815 10.997-7.314 29.256-21.466 28.934-21.624z"/> <path fill="#fff" d="m187.35 1204.9c20.382-12.691 44.996-40.902 21.84-42.908-19.434-1.684-36.401-8.326-33.571-27.699 4.213-28.841 17.064 26.185 54.796-9.473 4.625-4.371 11.368-9.621 16.825-6.348 6.852 4.11-1.036 11.333-1.861 23.037-5.194 73.75-68.316 75.711-87.213 124.53-7.297 18.852-36.381-20.309 29.184-61.136z"/> <path fill="#fff" d="m3114.3 736.07c-0.202-14.324-18.906-151.05-13.107-153.7 27.097-12.368 49.111 185.29 33.495 188.59-27.224 5.75-21.842-8.697-20.388-34.886z"/> <path fill="#fff" d="m2357.9 4336.3c-9.399 23.469-24.559-37.354-90.213 22.772-17.479 16.009-13.152-25.934 24.521-34.234 11.022-2.428-11.769-12.568 2.148-45.947 3.825-9.176-7.582-69.494-7.612-69.596-1.372-4.724 5.165-6.373 6.655-1.735 42.203 131.36 64.74 92.672 59.546 114.84-1.264 5.396 4.908 8.756 4.955 13.899z"/> <path fill="#fff" d="m1050.1 848.13c-15.527-0.165-140.07-26.975 34.477-64.016 13.523-2.871 27.063 55.705-34.477 64.016z"/> <path fill="#fff" d="m2421.5 816.95c-16.719 4.64-49.407-19.865-35.451-45.98 44.941-84.09 121.76 50.821 35.451 45.98z"/> <path fill="#fff" d="m3192.9 3860.1c3.375-0.114 23.315 8.398-27.588 25.646-18.105 6.135-22.694 12.933-16.966 31.083 11.676 36.994 41.086 97.594 20.684 99.639-19.766 1.981-40.438-67.347-40.205-98.996 0.397-53.705-19.022-48.913 64.075-57.372z"/> <path fill="#fff" d="m2849.6 2255.9c28.222-5.489 57.791-21.132 87.003 3.216 11.181 9.318 35.848 26.641 19.086 31.544-72.882 21.321-143.89-27.419-106.09-34.76z"/> <path fill="#fff" d="m2951.7 3828.4c-31.476 6.061-86.609-47.879-54.381-40.199 24.256 5.779 43.953 3.658 97.876-10.308 36.809-9.533 9.577 55.673-43.495 50.507z"/> <path fill="#fff" d="m2372.6 734.01c5.508 1.269 14.729-3.498 17.985 4.481 2.632 6.45-5.59 10.645-9.103 15.683-46.07 66.064 8.011 108.54-21.654 96.954-28.387-11.09-53.861-117.12 12.772-117.12z"/> <path fill="#fff" d="m2679.3 774.5c18.258 5.506 17.67-23.6 27.965-22.758 38.012 3.108-54.66 112.06-93.831 131-9.591 4.636-16.347-19.018-4.825-25.143 27.984-14.875 77.207-76.971 70.691-83.094z"/> <path fill="#fff" d="m306.81 774.73c0.742 23.365-22.329 26.843-35.978-31.696-18.735-80.349-29.398-111.8-3.5-115.32 9.489-1.289 10.976 15.86 11.803 27.01 5.785 77.985 28.025 109.06 27.675 120z"/> <path fill="#fff" d="m345.72 3305.3c-2.598-73.412 21.586-178.09 28.629-110.38 11.912 114.51-28.629 244.82-28.629 110.38z"/> <path fill="#fff" d="m3134.1 378.48c-5.54 96.518-34.362 22.25-29.001 3.929 13.481-46.075-9.029-73.284-8.115-91.707 0.565-11.399 30.264-55.446 37.116 87.778z"/> <path fill="#fff" d="m297.46 1807.7c5.543 58.601-20.318 18.587-23.161-28.256-3.592-59.168-5.811-69.098-2.283-81.946 7.124-25.941-3.994-20.496-1.95-34.97 1.92-13.598 19.489-19.827 21.714-0.305 7.946 69.687-7.319 8.049 5.68 145.48z"/> <path fill="#fff" d="m3072.3 3942.2c-0.011 0.104-30.887 159.62-65.323 129.02-19.333-17.184 37.874-58.853 40.988-124.7 0.452-9.555 23.301-22.493 24.335-4.322z"/> <path fill="#fff" d="m466.32 1199c-4.361-10.608 4.432 7.482-9.229-65.807-5.439-29.179-21.184-45.58-10.592-55.702 14.896-14.235 18.943-13.501 26.598 5.628 31.311 78.245 4.475 143.26-6.777 115.88z"/> <path fill="#fff" d="m1400.5 646c-5.688-1.904-5.031-4.272-2.824-5.936 31.461-23.714 24.644-42.596 54.636-48.091 61.252-11.22 115.26-36.211 100.77-15.06-10.523 15.351-68.001 34.687-86.257 37.532-29.561 4.608-38.979 30.056-66.321 31.555z"/> <path fill="#fff" d="m2876.6 3767.4c-20.167-9.265-0.433-35.723 58.748-27.691 23.161 3.144 72.239 24.694 48.838 27.021-0.1 0.01-77.213 14.623-107.59 0.67z"/> <path fill="#fff" d="m3135.7 3079.9c11.823-106.77 53.184 116.84 45.98 122.84-1.546 1.288-26.628-12.312-25.971-41.861 0.337-15.173-18.905-72.331-20.009-80.979z"/> <path fill="#fff" d="m1021.7 897.68c-53.237 3.842-57.091-65.522-32.133-53.835 25.398 11.892 31.874 27.051 66.432 24.624 36.214-2.544-5.58 32.086-34.299 29.211z"/> <path fill="#fff" d="m2898.9 411.71c-23.437-10.801 7.952-96.317 44.981-117.2 39.884-22.496-44.881 117.2-44.981 117.2z"/> <path fill="#fff" d="m2531.9 4269.1c1.91-25.976 10.681-35.643 0.716-55.815-2.428-4.916 1.053-10.933 7.774-5.19 24.297 20.763 33.667 17.107 35.577 27.444 8.37 45.283-25.247 54.811-31.768 60.372-10.937 9.324-11.439-18.512-12.299-26.811z"/> <path fill="#fff" d="m1333.2 800.79c-76.43 1.325 208.52-91.998 122.8-43.254-27.749 15.779-89.815 42.958-122.8 43.254z"/> <path fill="#fff" d="m2184.2 4227.6c9.321 2.538 94.204 51.016 94.5 51.877 12.956 37.766-41.873 7.516-72.907-17.177-0.108-0.086-54.503-26.601-21.593-34.7z"/> <path fill="#fff" d="m3096.7 1270.8c-48.531-10.125-5.144-25.576 19.347-99.818 10.697-32.423 21.835-25.606 15.973 3.335-12.67 62.555-44.878 93.375-35.32 96.483z"/> <path fill="#fff" d="m3188.8 670.76c-10.544 15.132 5.826 23.875 6.004 47.374 0.578 76.63 0.379 76.635-0.291 80.166-1.278 6.736-17.072 22.193-20.058-57.806-2.322-62.153-9.925-64.846 7.422-67.02 0.688-0.085 7.643-1.884 6.923-2.714z"/> <path fill="#fff" d="m529.16 3975c0.256 25.782-27.947 41.967-42.629 45.598-27.276 6.745-55.292 39.873-65.514 40.533-3.233-12.4 28.212-42.004 57.401-56.42 39.195-19.359 47.307-77.909 50.742-29.711z"/> <path fill="#fff" d="m205.56 666.01c2.676-6.856 11.718-5.642 12.915-0.059 2.54 11.843 2.392 7.293 6.772 75.918 2.283 35.775 15.098 43.842 1.88 47.582-8.555 2.421-15.635-0.423-16.199-7.709-8e-3 -0.1-12.472-97.528-5.368-115.73z"/> <path fill="#fff" d="m2985.6 4029.4c-4.676 10.154-5.261 10.111-15.658 6.786-5.433-1.737-7.22-4.255-5.457-9.697 16.945-52.291 11.242-52.473 15.218-70.481 4.551-20.612 50.656-23.807 5.897 73.392z"/> <path fill="#fff" d="m2998.6 3497.7c-37.582 112.68-87.685 84.633-72.666 74.176 24.996-17.402 71.421-114.98 72.666-74.176z"/> <path fill="#fff" d="m386.71 1189.3c-16.31-12.032-4.443-33.635-14.179-61.729-5.622-16.223 10.682-21.62 24.135-15.716 10.211 4.483 16.996 97.329-9.956 77.445z"/> <path fill="#fff" d="m3040.4 695.47c8.267 1.53 5.299 21.115 2.867 25.578-13.116 24.069-8.941 41.502-11.508 68.726-1.3 13.792-15.968 22.513-17.739 10.39-4.168-28.53 5.011-108.65 26.38-104.69z"/> <path fill="#fff" d="m1226.7 875.3c-50.794 0-48.432 2.57-49.389-4.049-5.402-37.338 111.6-10.346 110.84 2.974-0.363 6.369-2.225 4.599-61.454 1.075z"/> <path fill="#fff" d="m873.25 4213.2c7.915-60.88 52.496-22.696 48.738-18.184-0.086 0.103-48.738 94.471-48.738 18.184z"/> <path fill="#fff" d="m2154.1 876.06c25.216-2.054 39.225-19.256 73.929-33.902 13.282-5.605 16.164 7.697 7.007 13.489-106.58 67.403-123.97 23.918-80.936 20.413z"/> <path fill="#fff" d="m501.94 2446c-4.671 35.338-44.22 2.34-39.537-14.004 4.651-16.234 41.883-35.223 39.537 14.004z"/> <path fill="#fff" d="m329.67 728.08c8.262-41.309 63.011 77.853 27.584 59.255-13.644-7.161-25.831-54.937-27.584-59.255z"/> <path fill="#fff" d="m2792.9 3955.7c-20.583 0.345-13.181-12.124-8.254-14.379 10.514-4.812 19.105-11.039 26.364-20.464 4.847-6.293 24.757-1.79 29.551 4.938 5.502 7.725-17.417 26.107-47.661 29.905z"/> <path fill="#fff" d="m2669.5 4323.9c-21.555-0.217-21.907-21.748-6.315-27.452 65.828-24.079 45.345 24.152 6.315 27.452z"/> <path fill="#fff" d="m2683.7 3995.4c-5.279 14.784-83.196 2.333-80.408-10.621 2.928-13.609 83.559 1.79 80.408 10.621z"/> <path fill="#fff" d="m2953.1 2417c-2.397 23.136-21.837 43.075-25.222 27.661-17.48-79.59 25.626-46.622 25.222-27.661z"/> <path fill="#fff" d="m2763 3916.2c-44.066-8.622-33.086-17.143 15.8-30.566 15.464-4.247 18.853 11.684 16.492 13.565-9.302 7.414-17.208 17.555-32.292 17.001z"/> <path fill="#fff" d="m2184.9 721.54c74.733 39.881 49.19 51.174 39.925 46.708-1.841-0.888-61.106-37.476-39.925-46.708z"/> <path fill="#fff" d="m1202.9 785.14c-8.233-1.154-14.089-3.336-8.696-11.093 5.608-8.067-0.948-1.911 43.168-16.1 16.394-5.273 10.177 28.172-34.472 27.193z"/> <path fill="#fff" d="m1051.8 4252.4c6.864-1.578 24.761 30.196 6.589 53.218-18.682 23.672-7.734-52.955-6.589-53.218z"/> <path fill="#fff" d="m520.37 4254.4c-8.025-3.159-20.706 7.794-26.911-0.893-5.108-7.15 4.125-18.848 15.588-21.243 7.432-1.552 37.478 28.356 11.323 22.136z"/> <path fill="#fff" d="m2679.6 774.78c-2.184-1.381-2.376 1.221-0.311-0.268 8e-3 -0.017 0.311 0.268 0.311 0.268z"/> <path fill="#fff" d="m3269.8 2805.1c-2.242 1.303 0.279 2.089-0.159-0.425 0.02 0 0.159 0.425 0.159 0.425z"/> <path fill="#fff" d="m3096.2 1270.7c2.487-0.289 0.939-2.012 0.435 0.124 5e-3 0.019-0.435-0.124-0.435-0.124z"/> <path fill="#fff" d="m675.01 3932.2s-0.296-0.1-0.311-0.13c-0.016-0.03 0.311 0.13 0.311 0.13z"/> <path fill="#fff" d="m1236 4385.2s-0.19-0.27-0.187-0.265 0.187 0.265 0.187 0.265z"/> <path fill="#fff" d="m3088.7 149.8c67.526 4.189 3.628 89.962-22.295 37.578-9.217-18.622-3.477-37.894 22.295-37.578z"/> <path fill="#fff" d="m314.52 217.24c-88.962-21.391 3.06-96.159 28.049-34.039 10.548 26.221-7.099 34.256-28.049 34.039z"/> </svg>