<?xml version='1.0' encoding='utf-8'?>
<svg xmlns="http://www.w3.org/2000/svg" enable-background="new 0 0 841.89 595.28" version="1.1" viewBox="0 0 841.89 595.28"> <path d="m172.52 507.91c-0.406 0.77-0.737 1.527-0.944 2.25-1e-3 0 0.344-0.824 0.944-2.25z"/> <path d="m366.08 268.07c-2e-3 -0.01-6e-3 -0.019-8e-3 -0.029-0.104-0.48-0.409-0.898-0.625-1.384-8e-3 -0.015-0.019-0.028-0.027-0.043 3.83-0.399 6.686 2.84 6.686 2.84-0.4-1.171-1.076-2.08-1.9-2.814 1.238 0.8 1.9 1.381 1.9 1.381-2.744-6.568-14.923-7.761-14.923-7.761 3.107-4.774 10.748 0 10.748 0-5.848-8.714-12.897-1.7-12.897-1.7h-12.897c0.15-0.559 0.231-1.006 0.125-1.047-2.474-0.943-4.273-2.568-3.83-5.314 0.443-2.75 2.13-4.125 4.162-5.816 6.543-5.445 13.053-10.972 18.909-17.165 5.042-5.331 9.553-11.174 13.053-17.638 2.919-5.396 5.074-11.151 6.73-17.054 1.381-4.928 2.431-9.933 3.543-14.922 0.951-4.262 1.762-8.658 3.043-12.833 5.493-17.909 35.337-10.507 35.337-10.507-4.774-6.925-13.847-13.61-13.847-13.61-2.862-59.222-64.952-32.239-64.952-32.239-12.179-45.611-74.262-49.67-74.262-49.67-38.207-5.73-145.66-32.475-145.66-32.475 10.386 11.46 45.843 13.97 42.617 28.654-3.224 14.689 12.898 12.539 9.674 18.984-3.225 6.449 12.536 15.404 12.536 15.404-5.731 27.938 21.496 2.865 21.852 18.625s12.892 5.731 15.041 11.82c2.15 6.091 11.704 7.761 11.704 7.761-13.334-2.193-26.888-3.036-40.374-3.512-6.998-0.246-14.01-0.374-21.008-0.411-6.724-0.038-13.436 0.012-20.152 0.131-22.928 0.403-45.812 1.796-68.721 2.534-21.208 0.682-42.643 1.075-63.401 5.956-1.149 0.268-6.936 2.531-7.706 1.99 8.118 5.73 73.543 4.537 84.767 16.716s43.231 8.12 50.154 16.716c6.923 8.595 36.055 7.88 37.724 16.238 1.668 8.357 26.271 8.835 26.271 8.835-5.256 8.118 7.879 4.537 7.879 4.537-9.072 7.879 4.775 8.595 4.775 8.595-4.775 9.552 8.36 4.536 8.36 4.536-0.955 7.643 9.312 2.391 9.312 2.391 0.956 5.489 10.747 1.431 10.747 1.431-1.438 7.402 12.654 2.628 12.654 2.628-3.817 6.208-28.177 50.862-39.399 61.609-11.223 10.743-42.743 43.697-63.527 67.574-20.771 23.883-85.721 78.805-85.721 78.805l29.844-20.777-31.519 30.332c36.056-22.445 139.22-115.34 139.22-115.34-6.442 8.835-7.642 16.96-7.642 16.96l8.599-8.125c-5.774 13.212-20.296 47.644-24.127 56.734 2.862-5.392 9.798-11.604 9.798-11.604-15.759 20.54-66.856 192.95-41.074 115.1 25.796-77.849 73.787-155.94 90.502-178.14 16.716-22.207 55.878-40.835 55.878-40.835 0.738 1.7 1.649 3.681 2.956 5.022 1.337 1.372 3.975 1.812 5.78 1.799 4.83-0.037 12.948 0.423 14.454-5.633 0.062-0.235 0.088-0.45 0.125-0.671v0.053s15.729-1.644 19.222 0.269c2.923 1.604 6.125-1.828 7.226 0.116-0.025 0.189-0.081 0.356-0.113 0.501-0.107 0.376-0.168 0.592-0.168 0.592s0.105-0.199 0.289-0.546c0.035-0.076 0.084-0.16 0.131-0.248 0.133 0.361 0.218 0.849 0.248 1.497 0.237 5.252-3.106 8.713-3.106 8.713 5.018-0.837 6.805-7.401 6.805-7.401 1.075 4.656-0.475 6.806-0.475 6.806 4.655-1.313 3.937-7.449 3.937-7.449 3.112 4.368 0.244 10.433 0.244 10.433 6.508-7.957 1.376-14.296-1.496-16.904zm-7.206-3.788c-0.254 0.029-0.493 0.063-0.724 0.097-0.247-0.377-0.494-0.735-0.746-1.074 0.397 0.242 0.807 0.503 1.232 0.799 0.078 0.056 0.159 0.12 0.238 0.178zm-5.866 4.573c-5.017 0.36-20.008-0.513-20.008-0.513-0.425-1.19-1.55-3.771 0.351-4.496 1.562-0.6 3.305 0.372 4.948-0.125 0.75-0.228 1.387-0.656 1.925-1.197 0 0 6e-3 3e-3 0.013 3e-3 2.274 0 0 0 12.171-0.571 0.245-0.012 0.482-0.012 0.722-0.016 0 0-0.213 0.604 0.089 0.799 0.304 0.205 0.744 0.506 1.251 0.899 0.458 0.344 0.965 0.772 1.494 1.241-0.031 0.013-0.068 0.026-0.093 0.039-1.431 0.716 2.15 3.581-2.863 3.937zm7.601-4.713c-0.358-0.375-0.723-0.733-1.083-1.072 0.181 0.074 0.362 0.148 0.541 0.238 0.51 0.232 1.024 0.509 1.531 0.81-0.337 1e-3 -0.667 0.01-0.989 0.024zm2.865 0.048c-0.037-0.034-0.068-0.074-0.106-0.106-0.4-0.372-0.822-0.715-1.253-1.037 1.879 0.523 3.534 1.168 4.917 1.827-1.139-0.373-2.358-0.584-3.558-0.684zm0.996 2.59c0.078-0.02 0.152-0.028 0.229-0.045 0.072 0.088 0.152 0.172 0.215 0.265 0.039 0.067 0.083 0.131 0.125 0.196-0.349-0.27-0.569-0.416-0.569-0.416z"/> <path d="m658.13 421.1 10.498-2.149c-14.56 0.957-52.529-16.232-52.529-16.232l22.923-0.963c-13.849-4.299-36.058-7.636-36.058-7.636 3.106 0.234 20.06 1.43 20.06 1.43-18.629-6.924-47.998-17.909-47.998-17.909 7.166-0.481 20.297 3.818 20.297 3.818-14.328-9.55-50.147-24.115-50.147-24.115h11.461l-36.531-15.523c2.08-3.642 8.36-5.767 11.86-7.404 28.232-13.197 57.913-18.89 87.259-25.557 15.585-3.539 31.115-7.365 46.487-11.76 42.286-12.08 82.735-29.087 120.34-51.959 13.473-8.198 26.752-16.878 39.23-26.536-80.229 62.087-225.9 63.04-225.9 63.04 2.351-1.307 4.199-3.628 5.898-5.648 4.999-5.981 9.437-12.501 13.648-19.057 4.35-6.774 8.398-13.686 13.317-20.063 5.26-6.82 10.56-13.616 16.027-20.271 5.336-6.486 10.836-12.838 16.559-18.984 5.557-5.962 11.331-11.724 17.292-17.281 5.798-5.409 11.78-10.627 17.858-15.717 5.83-4.88 11.768-9.642 17.735-14.353 5.441-4.291 10.918-8.533 16.402-12.76 4.536-3.49 9.081-6.968 13.637-10.419 3.261-2.465 6.521-4.925 9.822-7.331 1.982-1.443 3.976-2.877 6.029-4.22 1.194-0.786 2.456-1.46 3.646-2.244-58.979 22.687-104.83 72.357-119.39 85.967-14.571 13.61-49.19 49.428-67.575 67.579-18.391 18.148-60.658 14.088-60.658 14.088l1.431-6.449-7.637 0.719c0-5.256 13.61-18.388 13.61-18.388l-5.974-0.478 16.243-22.685-7.707 5.012 8.188-17.432-6.688 2.391c2.143-10.271 50.623-46.326 50.623-46.326-10.987 0-22.928 10.504-22.928 10.504 8.6-17.432 116.77-79.754 116.77-79.754-15.041 0.715-53.004 21.489-53.004 21.489 5.726-6.446 66.621-34.147 66.621-34.147-153.31 51.579-181.96 98.862-222.8 131.1-40.837 32.235-32.955 65.548-32.955 65.548-32.596 0.716-37.97 18.625-37.97 18.625l-25.433 11.104c2.375 0.499 4.737 1.132 7.073 1.757 7.962 2.137 15.31 4.861 21.135 10.804 8.354 8.518 18.409 14.129 29.194 19.029 3.637 1.655 7.723 2.048 11.286 3.936 4.835 2.568 4.25 7.274 5.199 12.048 2.168 10.974 5.349 22.054 12.791 30.688 7.636 8.856 18.527 13.942 29.352 17.791 13.447 4.787 27.433 8.162 41.317 11.387 15.771 3.661 31.664 6.798 47.71 8.973 17.31 2.344 34.744 3.537 52.196 4.106 17.137 0.562 34.282 0.618 51.431 0.692 15.448 0.068 30.906 0.149 46.36-0.074 13.108-0.182 26.215-0.638 39.294-1.501 6.646-0.432 13.279-1 19.914-1.561-48.136 0.506-126.14-18.738-126.14-18.738z"/> <path d="m784.27 439.83c4.096-0.044 7.976-0.229 11.573-0.583 0.025-4e-3 0.043-4e-3 0.063-4e-3 1.198-0.12 2.392-0.232 3.586-0.352-3.262-0.03-6.511 0.214-9.767 0.481-1.819 0.15-3.637 0.304-5.455 0.458z"/> </svg>